<?xml version="1.0" encoding="UTF-8"?>
<svg id="Objects" xmlns="http://www.w3.org/2000/svg" viewBox="0 0 1317.31 1140.85">
  <defs>
    <style>
      .cls-1 {
        fill: #0a082e;
      }
    </style>
  </defs>
  <polygon class="cls-1" points="633.96 175.89 633.96 .01 24.7 .01 24.7 175.89 329.33 351.77 633.96 175.89"/>
  <polygon class="cls-1" points="1292.62 175.89 1292.62 .01 683.36 .01 683.36 175.89 987.99 351.77 1292.62 175.89"/>
  <polygon class="cls-1" points="152.32 834.27 304.63 746.33 304.63 394.57 0 218.69 0 922.21 152.32 834.27"/>
  <polygon class="cls-1" points="1317.31 218.69 1012.68 394.57 1012.68 746.33 1165 834.27 1317.31 922.21 1317.31 922.21 1317.31 218.69 1317.31 218.69"/>
  <polygon class="cls-1" points="987.99 789.11 835.67 877.05 683.35 964.99 683.35 1140.85 1292.62 1140.85 1292.62 964.99 1140.3 877.05 987.99 789.11"/>
  <polygon class="cls-1" points="963.29 746.33 963.29 394.57 658.66 218.69 354.03 394.57 354.03 746.33 506.34 834.27 658.66 922.21 810.97 834.27 963.29 746.33"/>
  <polygon class="cls-1" points="329.33 789.11 177.01 877.05 24.7 964.99 24.7 1140.85 633.96 1140.85 633.96 964.99 481.64 877.05 329.33 789.11"/>
</svg>