<svg id="figma-svgrepo-com" xmlns="http://www.w3.org/2000/svg" width="22.4" height="35" viewBox="0 0 22.4 35">
  <path id="Tracé_1177" data-name="Tracé 1177" d="M16,17.5a5.5,5.5,0,1,1,5.5,5.5A5.5,5.5,0,0,1,16,17.5Z" transform="translate(-4.608 -0.004)" fill="#1abcfe" fill-rule="evenodd"/>
  <path id="Tracé_1178" data-name="Tracé 1178" d="M8,25.5A5.5,5.5,0,0,1,13.5,20h5.5v5.5A5.5,5.5,0,0,1,8,25.5Z" transform="translate(-8 3.992)" fill="#0acf83" fill-rule="evenodd"/>
  <path id="Tracé_1179" data-name="Tracé 1179" d="M16,4V15.008h5.5A5.5,5.5,0,0,0,21.5,4Z" transform="translate(-4.608 -4)" fill="#ff7262" fill-rule="evenodd"/>
  <path id="Tracé_1180" data-name="Tracé 1180" d="M8,9.5a5.5,5.5,0,0,0,5.5,5.5h5.5V4H13.5A5.5,5.5,0,0,0,8,9.5Z" transform="translate(-8 -4)" fill="#f24e1e" fill-rule="evenodd"/>
  <path id="Tracé_1181" data-name="Tracé 1181" d="M8,17.5a5.5,5.5,0,0,0,5.5,5.5h5.5V12H13.5A5.5,5.5,0,0,0,8,17.5Z" transform="translate(-8 -0.004)" fill="#a259ff" fill-rule="evenodd"/>
</svg>
