<svg xmlns="http://www.w3.org/2000/svg" xmlns:xlink="http://www.w3.org/1999/xlink" width="30" height="25" viewBox="0 0 30 25">
  <defs>
    <clipPath id="clip-path">
      <rect id="Rectangle_86" data-name="Rectangle 86" width="30" height="25" rx="2" transform="translate(0.091 -0.664)" fill="#fff"/>
    </clipPath>
  </defs>
  <g id="flag-gb-svgrepo-com" transform="translate(-0.091 0.664)" clip-path="url(#clip-path)">
    <rect id="Rectangle_84" data-name="Rectangle 84" width="30.968" height="25" rx="2" transform="translate(0.091 -0.664)" fill="#fff"/>
    <g id="Groupe_1183" data-name="Groupe 1183" transform="translate(-4.942 -2.663)">
      <rect id="Rectangle_85" data-name="Rectangle 85" width="34.839" height="29" transform="translate(3.098)" fill="#0a17a7"/>
      <path id="Tracé_1194" data-name="Tracé 1194" d="M-1.13-1.916,12.044,7.507V-1.235h7.35V7.507L32.567-1.916,34.211.668,23.8,8.119h7.357v7.794H23.8l10.415,7.45-1.644,2.585L19.393,16.525v8.741h-7.35V16.525L-1.13,25.948l-1.644-2.585,10.415-7.45H.284V8.119H7.642L-2.774.668Z" transform="translate(3.946 2.354)" fill="#fff" fill-rule="evenodd"/>
      <path id="Tracé_1195" data-name="Tracé 1195" d="M18.668,7.627,32.631-2" transform="translate(6.143 2.438)" fill="none" stroke="#db1f35" stroke-linecap="round" stroke-width="0.667"/>
      <path id="Tracé_1196" data-name="Tracé 1196" d="M20.013,13.7,32.53,22.539" transform="translate(6.281 4.877)" fill="none" stroke="#db1f35" stroke-linecap="round" stroke-width="0.667"/>
      <path id="Tracé_1197" data-name="Tracé 1197" d="M9.219,7.551-3.837-1.671" transform="translate(3.837 2.489)" fill="none" stroke="#db1f35" stroke-linecap="round" stroke-width="0.667"/>
      <path id="Tracé_1198" data-name="Tracé 1198" d="M10.635,13.6-3.837,23.663" transform="translate(3.837 4.862)" fill="none" stroke="#db1f35" stroke-linecap="round" stroke-width="0.667"/>
      <path id="Tracé_1199" data-name="Tracé 1199" d="M0,13.865H13.229v9.243h4.41V13.865H30.869V9.243H17.639V0h-4.41V9.243H0Z" transform="translate(4.231 2.748)" fill="#e6273e" fill-rule="evenodd"/>
    </g>
  </g>
</svg>
