<svg xmlns="http://www.w3.org/2000/svg" xmlns:xlink="http://www.w3.org/1999/xlink" width="30" height="25" viewBox="0 0 30 25">
  <defs>
    <clipPath id="clip-path">
      <rect id="Rectangle_83" data-name="Rectangle 83" width="30" height="25" rx="2" fill="#fff"/>
    </clipPath>
  </defs>
  <g id="flag-es-svgrepo-com" clip-path="url(#clip-path)">
    <g id="Groupe_1182" data-name="Groupe 1182" transform="translate(-1.869 -0.27)">
      <path id="Tracé_1187" data-name="Tracé 1187" d="M0,7.077H33.441V0H0Z" fill="#dd172c" fill-rule="evenodd"/>
      <path id="Tracé_1188" data-name="Tracé 1188" d="M0,21.744H33.441V14.667H0Z" transform="translate(0 4.796)" fill="#dd172c" fill-rule="evenodd"/>
      <path id="Tracé_1189" data-name="Tracé 1189" d="M0,17.719H33.441V5.333H0Z" transform="translate(0 1.744)" fill="#ffd133" fill-rule="evenodd"/>
      <path id="Tracé_1190" data-name="Tracé 1190" d="M7.333,9.333H8.926v.885H7.333Z" transform="translate(1.425 3.052)" fill="#ffedb1" fill-rule="evenodd"/>
      <path id="Tracé_1191" data-name="Tracé 1191" d="M6.456,9h2.25a.426.426,0,0,1,.4.479l-.2,2.728a1.253,1.253,0,0,1-1.19,1.217H7.454a1.252,1.252,0,0,1-1.19-1.217l-.2-2.728A.426.426,0,0,1,6.456,9Z" transform="translate(1.177 2.943)" fill="none" stroke="#a41517" stroke-width="0.667"/>
      <path id="Tracé_1192" data-name="Tracé 1192" d="M6,10H9.185v.885h-.8l-.8,1.769-.8-1.769H6Z" transform="translate(1.166 3.27)" fill="#a41517" fill-rule="evenodd"/>
      <rect id="Rectangle_81" data-name="Rectangle 81" width="1.592" height="6.193" rx="0.667" transform="translate(4.777 10.616)" fill="#a41517"/>
      <rect id="Rectangle_82" data-name="Rectangle 82" width="1.592" height="6.193" rx="0.667" transform="translate(11.147 10.616)" fill="#a41517"/>
      <path id="Tracé_1193" data-name="Tracé 1193" d="M6,8.082A1.35,1.35,0,0,1,7.274,6.667h.637A1.35,1.35,0,0,1,9.185,8.082h0a.338.338,0,0,1-.318.354H6.318A.338.338,0,0,1,6,8.082Z" transform="translate(1.166 2.18)" fill="#a41517"/>
    </g>
  </g>
</svg>
