<svg xmlns="http://www.w3.org/2000/svg" width="30" height="30.001" viewBox="0 0 30 30.001">
  <path id="Icon_corebrands-linkedin-in" data-name="Icon corebrands-linkedin-in" d="M8.966,30H2.746V9.971h6.22ZM5.852,7.239A3.619,3.619,0,1,1,9.455,3.6,3.633,3.633,0,0,1,5.852,7.239ZM32.245,30H26.039v-9.75c0-2.324-.047-5.3-3.234-5.3-3.234,0-3.73,2.524-3.73,5.137V30H12.862V9.971h5.965V12.7h.087A6.535,6.535,0,0,1,24.8,9.469c6.295,0,7.452,4.146,7.452,9.53V30Z" transform="translate(-2.25 0)" fill="#f5f5f5"/>
</svg>
