<svg xmlns="http://www.w3.org/2000/svg" width="23.242" height="23.242" viewBox="0 0 23.242 23.242">
  <path id="Icon_akar-github-fill" data-name="Icon akar-github-fill" d="M11.621,0A11.768,11.768,0,0,0,0,11.915a11.884,11.884,0,0,0,7.946,11.3c.581.1.8-.253.8-.566,0-.283-.015-1.221-.015-2.219-2.92.551-3.675-.73-3.908-1.4a4.331,4.331,0,0,0-1.191-1.683c-.407-.223-.988-.774-.015-.789A2.327,2.327,0,0,1,5.4,17.783a2.449,2.449,0,0,0,3.385.983,2.53,2.53,0,0,1,.741-1.594c-2.586-.3-5.288-1.326-5.288-5.883a4.7,4.7,0,0,1,1.191-3.2A4.382,4.382,0,0,1,5.549,4.93s.973-.313,3.2,1.221a10.7,10.7,0,0,1,5.811,0c2.223-1.549,3.2-1.221,3.2-1.221a4.382,4.382,0,0,1,.116,3.157,4.676,4.676,0,0,1,1.191,3.2c0,4.572-2.716,5.585-5.3,5.883a2.86,2.86,0,0,1,.784,2.2c0,1.594-.015,2.875-.015,3.277,0,.313.218.685.8.566a11.915,11.915,0,0,0,7.917-11.3A11.768,11.768,0,0,0,11.621,0Z" fill="#00bcd4"/>
</svg>
