<svg id="sass-svgrepo-com_1_" data-name="sass-svgrepo-com (1)" xmlns="http://www.w3.org/2000/svg" width="35" height="35" viewBox="0 0 35 35">
  <rect id="Rectangle_79" data-name="Rectangle 79" width="35" height="35" rx="5" fill="#c69"/>
  <path id="Tracé_1175" data-name="Tracé 1175" d="M115.96,77.73c-6.526,2.243-10.741,6.8-10.333,9.517s4.487,4.895,6.322,6.322h0c-2.379,1.224-5.37,3.059-5.3,5.438.136,3.263,3.671,2.243,5.166,1.292a5.679,5.679,0,0,0,2.039-6.39,5.9,5.9,0,0,1,4.487.544c2.107,1.5,1.02,3.2.272,3.467s-.272.408.2.272a2.194,2.194,0,0,0,1.5-1.971c0-2.923-3.127-4.283-7-3.263-2.243-2.379-5.3-3.467-5.166-6.05.068-.952.408-3.4,6.458-6.458s10.333-1.835,9.789.952c-.816,4.215-8.158,7.07-10.741,4.623-.136-.272-.612-.476-.34.272,1.36,3.4,12.372,1.835,12.848-5.37C126.293,77.118,120.787,76.1,115.96,77.73Zm-5.846,21.753c-1.7.544-1.631-.544-1.564-.952.2-1.156,1.156-2.583,4.011-4.011A3.947,3.947,0,0,1,110.114,99.483Z" transform="translate(-99.286 -71.432)" fill="#fff"/>
</svg>
