<svg id="python-svgrepo-com" xmlns="http://www.w3.org/2000/svg" xmlns:xlink="http://www.w3.org/1999/xlink" width="35.183" height="35" viewBox="0 0 35.183 35">
  <defs>
    <linearGradient id="linear-gradient" x1="0.13" y1="0.12" x2="0.796" y2="0.782" gradientUnits="objectBoundingBox">
      <stop offset="0" stop-color="#387eb8"/>
      <stop offset="1" stop-color="#366994"/>
    </linearGradient>
    <linearGradient id="linear-gradient-2" x1="0.191" y1="0.206" x2="0.907" y2="0.884" gradientUnits="objectBoundingBox">
      <stop offset="0" stop-color="#ffe052"/>
      <stop offset="1" stop-color="#ffc331"/>
    </linearGradient>
  </defs>
  <path id="Tracé_1182" data-name="Tracé 1182" d="M17.729.072c-8.993,0-8.431,3.9-8.431,3.9l.01,4.04h8.581V9.225H5.9S.145,8.573.145,17.646,5.167,26.4,5.167,26.4h3V22.188S8,17.165,13.107,17.165h8.511s4.782.077,4.782-4.622V4.774s.726-4.7-8.672-4.7ZM13,2.789a1.544,1.544,0,1,1-1.544,1.544A1.542,1.542,0,0,1,13,2.789Z" transform="translate(-0.145 -0.072)" fill="url(#linear-gradient)"/>
  <path id="Tracé_1183" data-name="Tracé 1183" d="M74.83,90.648c8.993,0,8.431-3.9,8.431-3.9l-.01-4.04H74.669V81.5h11.99s5.754.653,5.754-8.421-5.023-8.752-5.023-8.752h-3v4.211s.162,5.023-4.942,5.023H70.94s-4.782-.077-4.782,4.622v7.77s-.726,4.7,8.672,4.7Zm4.732-2.717a1.544,1.544,0,1,1,1.544-1.544,1.542,1.542,0,0,1-1.544,1.544Z" transform="translate(-57.231 -55.648)" fill="url(#linear-gradient-2)"/>
</svg>
