<svg id="javascript-svgrepo-com" xmlns="http://www.w3.org/2000/svg" width="64" height="26" viewBox="0 0 64 26">
  <rect id="Rectangle_98" data-name="Rectangle 98" width="26" height="26" rx="5" transform="translate(38)" fill="#f7df1e"/>
  <path id="Tracé_1200" data-name="Tracé 1200" d="M124.9,209.961a2.45,2.45,0,0,0,2.227,1.374c.948,0,1.564-.474,1.564-1.137,0-.758-.616-1.042-1.659-1.516l-.569-.237c-1.659-.711-2.748-1.564-2.748-3.412A3.044,3.044,0,0,1,127.036,202a3.3,3.3,0,0,1,3.222,1.848l-1.753,1.137a1.538,1.538,0,0,0-1.469-1,1,1,0,0,0-1.09,1c0,.663.426.948,1.422,1.374l.569.237c1.943.853,3.033,1.659,3.033,3.6,0,2.038-1.611,3.175-3.791,3.175a4.369,4.369,0,0,1-4.17-2.322Zm-8.056.19c.379.616.663,1.185,1.469,1.185.758,0,1.232-.284,1.232-1.422v-7.866h2.275v7.771a3.073,3.073,0,0,1-3.412,3.412A3.491,3.491,0,0,1,115,211.146Z" transform="translate(-70.317 -190.559)"/>
  <text id="vanilla" transform="translate(0 9)" fill="#f7df1e" font-size="12" font-family="Graphie-SemiBold, Graphie" font-weight="600"><tspan x="0" y="11">vanilla</tspan></text>
</svg>
