<svg id="php3-svgrepo-com" xmlns="http://www.w3.org/2000/svg" width="52.132" height="24.863" viewBox="0 0 52.132 24.863">
  <path id="Tracé_1184" data-name="Tracé 1184" d="M12.426,15.236a4.379,4.379,0,0,1,3.249.9,3.567,3.567,0,0,1,.385,3.091,5.176,5.176,0,0,1-1.709,3.255,6.284,6.284,0,0,1-3.854.985H7.891l1.6-8.213ZM2,31.78H6.282L7.3,26.567h3.662a13.124,13.124,0,0,0,3.992-.516A7.559,7.559,0,0,0,17.8,24.342a8.537,8.537,0,0,0,2.689-4.807,6.122,6.122,0,0,0-1.024-5.44,6.835,6.835,0,0,0-5.418-1.953H5.83Z" transform="translate(-2 -6.917)" fill="#8993be"/>
  <path id="Tracé_1185" data-name="Tracé 1185" d="M15.391,9.323h4.251l-1.03,5.213h3.781a7.366,7.366,0,0,1,4.925,1.246,4.12,4.12,0,0,1,.812,4.035l-1.776,9.14h-4.3l1.691-8.689a2.359,2.359,0,0,0-.212-2.022,2.979,2.979,0,0,0-2.13-.532H18.007L15.819,28.966h-4.26Z" transform="translate(6.239 -9.323)" fill="#8993be"/>
  <path id="Tracé_1186" data-name="Tracé 1186" d="M30.365,15.233a4.379,4.379,0,0,1,3.249.9A3.567,3.567,0,0,1,34,19.223a5.176,5.176,0,0,1-1.709,3.255,6.284,6.284,0,0,1-3.861.985h-2.6l1.6-8.222ZM19.939,31.778h4.282l1.015-5.213H28.9a13.124,13.124,0,0,0,4-.516,7.559,7.559,0,0,0,2.849-1.709,8.537,8.537,0,0,0,2.679-4.807,6.122,6.122,0,0,0-1.024-5.44,6.835,6.835,0,0,0-5.416-1.948H23.758Z" transform="translate(13.461 -6.915)" fill="#8993be"/>
</svg>
