<svg xmlns="http://www.w3.org/2000/svg" width="342.726" height="346.021" viewBox="0 0 342.726 346.021">
  <g id="icon_three" transform="translate(-15.11 -15.762)">
    <path id="Tracé_144" data-name="Tracé 144" d="M18.909,15.762a3.868,3.868,0,0,0-3.686,4.793L98.795,358.839a3.868,3.868,0,0,0,6.437,1.864L356.648,118.866a3.868,3.868,0,0,0-1.61-6.506L20.043,15.913a3.868,3.868,0,0,0-1.134-.151ZM24.336,25.2l322.12,92.74L104.7,350.48,24.336,25.2Z" transform="translate(0)" fill="#e6e6eb"/>
    <path id="Tracé_145" data-name="Tracé 145" d="M156.907,29.841a3.868,3.868,0,0,0-2.765,1.079L28.493,151.872a3.868,3.868,0,0,0,1.614,6.5l167.388,48.244a3.868,3.868,0,0,0,4.827-4.642L160.583,32.78A3.868,3.868,0,0,0,156.907,29.841Zm-2.23,11.306,38.535,156.188L38.688,152.8Z" transform="translate(29.592 34.152)" fill="#e6e6eb"/>
    <path id="Tracé_146" data-name="Tracé 146" d="M49.6,47.313a3.868,3.868,0,0,0-3.686,4.793l20.741,84.042a3.868,3.868,0,0,0,6.441,1.86l62.427-60.17a3.868,3.868,0,0,0-1.617-6.5L50.738,47.464A3.867,3.867,0,0,0,49.6,47.313Zm5.423,9.425,70.307,20.179L72.558,127.778,55.027,56.738Z" transform="translate(74.464 76.541)" fill="#e6e6eb"/>
    <path id="Tracé_147" data-name="Tracé 147" d="M87.9,22.811a3.868,3.868,0,0,0-2.765,1.083L22.711,84.06a3.868,3.868,0,0,0,1.617,6.5l83.158,23.875a3.868,3.868,0,0,0,4.824-4.646L91.579,25.754A3.868,3.868,0,0,0,87.9,22.808ZM85.676,34.117l17.52,71.04L32.907,84.978l52.77-50.865Zm168.559,36.6a3.868,3.868,0,0,0-2.761,1.083L189.04,131.965a3.868,3.868,0,0,0,1.617,6.506l83.161,23.872a3.868,3.868,0,0,0,4.824-4.646L257.915,73.659a3.868,3.868,0,0,0-3.679-2.943Zm-2.227,11.306,17.52,71.044-70.29-20.179,52.77-50.861ZM129.158,190.871a3.868,3.868,0,0,0-2.535,1.079L64.2,252.12a3.868,3.868,0,0,0,1.617,6.5l83.175,23.872a3.868,3.868,0,0,0,4.82-4.642L133.064,193.81A3.868,3.868,0,0,0,129.158,190.871Zm-1.994,11.306L144.7,273.22,74.391,253.041l52.773-50.861Z" transform="translate(15.568 17.094)" fill="#e6e6eb"/>
  </g>
</svg>
