<?xml version="1.0" encoding="UTF-8"?>
<svg id="Calque_1" data-name="Calque 1" xmlns="http://www.w3.org/2000/svg" viewBox="0 0 800 800">
  <path d="M593.767,750.067c-2.967,1.567-2.8,2.2.167.7.868-.373,1.66-.904,2.333-1.567,0-.533-.067-.467-2.5.867h0ZM599.7,746.933c-1.4,1.1-1.4,1.167.3.3.933-.467,1.733-1,1.733-1.167,0-.633-.4-.467-2.033.867ZM603.6,744.567c-1.4,1.1-1.4,1.167.3.3.933-.467,1.733-1,1.733-1.167,0-.633-.4-.467-2.033.867ZM607.5,742.233c-1.4,1.1-1.4,1.167.3.3.933-.467,1.733-1,1.733-1.167,0-.633-.4-.467-2.033.867ZM612.9,738.733c-2.733,1.733-3.6,2.9-1.167,1.567,1.733-1,4.533-3.133,4.067-3.2-1.022.439-1.995.987-2.9,1.633ZM373.8.2c-1.733.167-7.2.7-12.133,1.1C248.067,11.533,141.633,72.833,74.233,167.067,36.972,218.788,12.752,278.743,3.633,341.833.433,363.8.033,370.3.033,400.1s.4,36.267,3.6,58.267c21.733,150.2,128.633,276.4,273.6,323.167,25.967,8.367,53.333,14.067,84.433,17.5,12.133,1.333,64.5,1.333,76.633,0,53.7-5.933,99.233-19.233,144.1-42.133,6.867-3.533,8.2-4.467,7.267-5.233-21.916-28.958-43.628-58.069-65.133-87.333l-63.967-86.4-80.133-118.6c-26.644-39.685-53.544-79.197-80.7-118.533-.3-.067-.633,52.633-.767,116.967-.233,112.667-.3,117.2-1.733,119.867-1.361,3.115-3.798,5.636-6.867,7.1-2.5,1.267-4.7,1.5-16.5,1.5h-13.533l-3.6-2.267c-2.221-1.4-4.028-3.368-5.233-5.7l-1.633-3.533.167-156.767.233-156.833,2.433-3.033c1.635-1.921,3.599-3.535,5.8-4.767,3.2-1.567,4.467-1.733,18-1.733,15.967,0,18.6.633,22.767,5.167,32.438,48.275,64.605,96.731,96.5,145.367,51.933,78.733,122.9,186.233,157.8,239.033l63.333,95.933,3.2-2.1c30.475-20.271,58.108-44.518,82.167-72.1,50.399-57.678,83.084-128.673,94.133-204.467,3.2-21.967,3.6-28.467,3.6-58.267s-.4-36.267-3.6-58.267c-21.733-150.2-128.633-276.4-273.6-323.167-27.091-8.625-54.991-14.466-83.267-17.433-7.5-.767-59.2-1.633-65.667-1l-.067-.1ZM537.533,242.133c3.766,1.893,6.613,5.22,7.9,9.233.633,2.033.767,45.5.633,143.467l-.233,140.6-24.8-38-24.867-38v-102.2c0-66.067.3-103.2.767-105,1.142-4.197,3.931-7.755,7.733-9.867,3.2-1.633,4.367-1.8,16.667-1.8,11.567,0,13.6.167,16.2,1.567h0Z" fill="#edf3ff"/>
</svg>