<svg id="react-svgrepo-com" xmlns="http://www.w3.org/2000/svg" width="39.338" height="35" viewBox="0 0 39.338 35">
  <path id="Tracé_1176" data-name="Tracé 1176" d="M32.344,11.344q-.612-.211-1.266-.4.107-.438.2-.864c.959-4.653.332-8.4-1.808-9.636-2.052-1.183-5.408.05-8.8,3q-.489.425-.98.9-.326-.312-.652-.6C15.483.588,11.922-.741,9.784.5,7.734,1.684,7.127,5.208,7.99,9.618q.125.639.291,1.3c-.5.143-.99.3-1.456.458C2.66,12.831,0,15.106,0,17.467,0,19.9,2.855,22.35,7.193,23.833q.514.176,1.064.333-.178.718-.309,1.4c-.823,4.333-.18,7.774,1.865,8.953,2.112,1.218,5.657-.034,9.108-3.051q.409-.358.821-.757.533.514,1.064.97c3.343,2.877,6.645,4.039,8.688,2.856,2.11-1.221,2.8-4.918,1.905-9.415q-.1-.515-.236-1.051.373-.11.731-.229c4.51-1.494,7.444-3.91,7.444-6.38,0-2.369-2.746-4.66-6.994-6.123Zm-.978,10.908q-.323.107-.661.207a39.424,39.424,0,0,0-1.992-4.984,39.411,39.411,0,0,0,1.915-4.911q.6.175,1.169.369c3.64,1.253,5.861,3.106,5.861,4.534,0,1.521-2.4,3.495-6.292,4.785Zm-1.616,3.2a14.233,14.233,0,0,1,.189,5.192,3.473,3.473,0,0,1-1.288,2.442c-1.24.717-3.891-.215-6.75-2.676q-.492-.423-.989-.9a39.459,39.459,0,0,0,3.3-4.187,39.221,39.221,0,0,0,5.328-.821q.12.486.213.952Zm-16.339,7.51a3.473,3.473,0,0,1-2.759.1C9.411,32.352,8.9,29.589,9.6,25.883q.121-.637.287-1.306a39.527,39.527,0,0,0,5.3.767,40.916,40.916,0,0,0,3.377,4.172q-.376.363-.749.69a14.234,14.234,0,0,1-4.4,2.757ZM7.737,22.243a14.234,14.234,0,0,1-4.588-2.438A3.473,3.473,0,0,1,1.68,17.467c0-1.432,2.136-3.26,5.7-4.5.432-.151.885-.293,1.354-.426a40.283,40.283,0,0,0,1.917,4.968,40.943,40.943,0,0,0-1.941,5.039q-.5-.145-.971-.3Zm1.9-12.948c-.739-3.778-.248-6.628.987-7.344,1.316-.762,4.226.324,7.294,3.048q.294.261.59.545a40.266,40.266,0,0,0-3.351,4.147,41.072,41.072,0,0,0-5.249.816q-.154-.618-.27-1.212Zm16.969,4.19q-.584-1.009-1.2-1.967c1.255.159,2.458.369,3.587.627a35.887,35.887,0,0,1-1.259,3.387q-.535-1.016-1.132-2.047Zm-6.92-6.74A35.944,35.944,0,0,1,22,9.54q-1.154-.055-2.334-.055t-2.316.054c.764-1.008,1.547-1.944,2.334-2.794ZM12.724,13.5q-.583,1.011-1.11,2.034c-.489-1.161-.908-2.3-1.25-3.4,1.122-.251,2.319-.457,3.566-.612q-.62.967-1.206,1.982Zm1.242,10.042a35.766,35.766,0,0,1-3.626-.583c.347-1.122.775-2.287,1.275-3.473q.528,1.02,1.115,2.035h0q.6,1.032,1.235,2.02Zm5.769,4.768c-.8-.859-1.591-1.81-2.367-2.833q1.13.044,2.3.045,1.2,0,2.375-.053a35.752,35.752,0,0,1-2.309,2.841Zm8.021-8.884a35.63,35.63,0,0,1,1.321,3.461,35.652,35.652,0,0,1-3.67.626q.613-.971,1.208-2t1.141-2.084Zm-2.6,1.245c-.615,1.066-1.246,2.084-1.887,3.045-1.167.083-2.373.126-3.6.126s-2.415-.038-3.562-.112c-.667-.973-1.312-1.994-1.923-3.05h0c-.609-1.053-1.17-2.114-1.678-3.17.508-1.058,1.067-2.121,1.673-3.171h0c.608-1.053,1.247-2.069,1.907-3.037,1.17-.088,2.37-.135,3.582-.135h0c1.218,0,2.419.047,3.589.136.65.96,1.286,1.973,1.9,3.026s1.183,2.121,1.7,3.156c-.511,1.053-1.076,2.119-1.69,3.184ZM28.626,1.9c1.317.76,1.83,3.823,1,7.841q-.079.385-.177.782a40.257,40.257,0,0,0-5.26-.831,39.466,39.466,0,0,0-3.325-4.15q.453-.436.9-.83c2.9-2.527,5.619-3.525,6.855-2.812ZM19.669,13.954a3.513,3.513,0,1,1-3.513,3.513,3.513,3.513,0,0,1,3.513-3.513Z" transform="translate(0 0)" fill="#00d8ff"/>
</svg>
