<svg xmlns="http://www.w3.org/2000/svg" width="81.198" height="74.431" viewBox="0 0 81.198 74.431">
  <path id="display-code_8770911" d="M62.313,26.692a6.736,6.736,0,0,1,0,9.514L51.151,47.367l-4.784-4.784L57.525,31.422,46.367,20.315l4.784-4.784L62.309,26.692ZM30.043,15.531,18.882,26.692a6.743,6.743,0,0,0,0,9.514L30.04,47.367l4.784-4.784L23.666,31.476,34.824,20.315,30.04,15.531ZM43.982,61.9v6.766H60.9v6.767H20.3V68.665H37.216V61.9H0V11.15A10.162,10.162,0,0,1,10.15,1h60.9A10.162,10.162,0,0,1,81.2,11.15V61.9H43.982ZM6.766,55.132H74.431V11.15a3.387,3.387,0,0,0-3.383-3.383H10.15A3.387,3.387,0,0,0,6.766,11.15V55.132Z" transform="translate(0 -1)" fill="#0a082e"/>
</svg>
