<svg xmlns="http://www.w3.org/2000/svg" width="61.065" height="60.022" viewBox="0 0 61.065 60.022">
  <g id="_1047730_OL1V3C1_Converti_" data-name="1047730_OL1V3C1 [Converti]" transform="translate(0 0.01)">
    <path id="Tracé_15" data-name="Tracé 15" d="M1335.073,3164.065c2.089,1.946,1.724,3.57,1.584,3.721-.162.174-1.735.63-3.824-1.315a20.832,20.832,0,0,1-3.743-5.731A20.826,20.826,0,0,1,1335.073,3164.065Z" transform="translate(-1309.93 -3115.184)" fill="#fbb03b"/>
    <path id="Tracé_16" data-name="Tracé 16" d="M1105.4,3662.409c2.8-.544,3.354-2.116,3.314-2.317-.046-.234-1.138-1.453-3.941-.909a20.83,20.83,0,0,0-6.209,2.879A20.843,20.843,0,0,0,1105.4,3662.409Z" transform="translate(-1082.723 -3606.305)" fill="#fbb03b"/>
    <path id="Tracé_17" data-name="Tracé 17" d="M1015.334,2900.56c1.272,2.386.445,3.729.274,3.82-.2.107-1.748.031-3.02-2.355a19.731,19.731,0,0,1-1.588-6.285A19.734,19.734,0,0,1,1015.334,2900.56Z" transform="translate(-996.425 -2854.005)" fill="#fbb03b"/>
    <path id="Tracé_18" data-name="Tracé 18" d="M592.676,3409.787c2.678.375,3.655-.863,3.682-1.056.031-.223-.572-1.651-3.25-2.027a19.718,19.718,0,0,0-6.448.667A19.739,19.739,0,0,0,592.676,3409.787Z" transform="translate(-578.203 -3357.522)" fill="#fbb03b"/>
    <path id="Tracé_19" data-name="Tracé 19" d="M756.283,2617.794c.543,2.434-.524,3.425-.7,3.464-.2.045-1.561-.4-2.1-2.84a18.2,18.2,0,0,1,.137-5.979,18.2,18.2,0,0,1,2.666,5.354Z" transform="translate(-742.41 -2574.789)" fill="#fbb03b"/>
    <path id="Tracé_20" data-name="Tracé 20" d="M266.114,3011.91c2.288.993,3.462.134,3.534-.031.083-.191-.1-1.609-2.39-2.6a18.2,18.2,0,0,0-5.9-1,18.209,18.209,0,0,0,4.754,3.63Z" transform="translate(-257.592 -2964.922)" fill="#fbb03b"/>
    <path id="Tracé_21" data-name="Tracé 21" d="M522.037,2308.037c.04,2.294-1.1,2.99-1.268,2.993-.191,0-1.332-.652-1.373-2.947a16.742,16.742,0,0,1,1.227-5.362,16.746,16.746,0,0,1,1.415,5.316Z" transform="translate(-511.907 -2269.534)" fill="#fbb03b"/>
    <path id="Tracé_22" data-name="Tracé 22" d="M70.174,2568.377c1.879,1.318,3.1.76,3.19.625.11-.157.206-1.469-1.673-2.787a16.748,16.748,0,0,0-5.131-1.985A16.737,16.737,0,0,0,70.174,2568.377Z" transform="translate(-65.6 -2527.274)" fill="#fbb03b"/>
    <path id="Tracé_23" data-name="Tracé 23" d="M363,2018.468c-.6,2.065-1.811,2.373-1.959,2.33-.172-.05-1.013-.95-.418-3.015a15.688,15.688,0,0,1,2.574-4.462A15.678,15.678,0,0,1,363,2018.468Z" transform="translate(-355.214 -1984.306)" fill="#fbb03b"/>
    <path id="Tracé_24" data-name="Tracé 24" d="M2.093,2104c1.319,1.7,2.561,1.532,2.683,1.437.141-.111.588-1.259-.73-2.955A15.673,15.673,0,0,0,0,2099.29,15.679,15.679,0,0,0,2.093,2104Z" transform="translate(0 -2069.037)" fill="#fbb03b"/>
    <path id="Tracé_25" data-name="Tracé 25" d="M301.059,1697.074c-.9,1.867-2.108,1.962-2.242,1.9-.156-.076-.809-1.069.092-2.936a15.144,15.144,0,0,1,3.173-3.826A15.133,15.133,0,0,1,301.059,1697.074Z" transform="translate(-294.14 -1667.825)" fill="#fbb03b"/>
    <path id="Tracé_26" data-name="Tracé 26" d="M11.716,1688.878c.979,1.828,2.187,1.873,2.319,1.8.152-.082.764-1.1-.215-2.929a15.137,15.137,0,0,0-3.33-3.691A15.123,15.123,0,0,0,11.716,1688.878Z" transform="translate(-10.339 -1659.792)" fill="#fbb03b"/>
    <path id="Tracé_27" data-name="Tracé 27" d="M285.149,1428.866c-1.093,1.477-2.159,1.36-2.264,1.282-.123-.092-.528-1.064.565-2.54a13.417,13.417,0,0,1,3.393-2.807A13.41,13.41,0,0,1,285.149,1428.866Z" transform="translate(-278.633 -1404.27)" fill="#fbb03b"/>
    <path id="Tracé_28" data-name="Tracé 28" d="M95.832,1332.946c.55,1.752,1.595,1.991,1.721,1.951.146-.046.847-.833.3-2.585a13.406,13.406,0,0,0-2.29-3.762,13.4,13.4,0,0,0,.272,4.4Z" transform="translate(-94.113 -1309.407)" fill="#fbb03b"/>
    <path id="Tracé_29" data-name="Tracé 29" d="M350.245,1151.734c-1.186,1.212-2.146.971-2.233.886s-.348-1.04.838-2.252a12.385,12.385,0,0,1,3.458-2.138,12.38,12.38,0,0,1-2.063,3.5Z" transform="translate(-342.904 -1131.687)" fill="#fbb03b"/>
    <path id="Tracé_30" data-name="Tracé 30" d="M208.968,1004.945c.282,1.673,1.207,2.023,1.327,2,.139-.024.879-.655.6-2.327a12.377,12.377,0,0,0-1.619-3.73A12.37,12.37,0,0,0,208.968,1004.945Z" transform="translate(-205.88 -986.471)" fill="#fbb03b"/>
    <path id="Tracé_31" data-name="Tracé 31" d="M465.143,919.744c-1.2.852-1.98.5-2.041.414s-.138-.94,1.06-1.793a10.737,10.737,0,0,1,3.278-1.295A10.731,10.731,0,0,1,465.143,919.744Z" transform="translate(-456.394 -903.859)" fill="#fbb03b"/>
    <path id="Tracé_32" data-name="Tracé 32" d="M371.933,730.952c-.016,1.47.72,1.91.826,1.912.123,0,.85-.424.867-1.894a10.727,10.727,0,0,0-.81-3.43,10.725,10.725,0,0,0-.883,3.412Z" transform="translate(-366.571 -717.062)" fill="#fbb03b"/>
    <path id="Tracé_33" data-name="Tracé 33" d="M595.849,709.261c-1.185.609-1.841.191-1.885.106s0-.862,1.183-1.471a9.736,9.736,0,0,1,3.109-.736A9.724,9.724,0,0,1,595.849,709.261Z" transform="translate(-585.389 -696.975)" fill="#fbb03b"/>
    <path id="Tracé_34" data-name="Tracé 34" d="M529.812,496.787c-.2,1.317.4,1.807.493,1.823s.818-.27,1.023-1.587a9.724,9.724,0,0,0-.281-3.182,9.724,9.724,0,0,0-1.235,2.947Z" transform="translate(-522.132 -486.731)" fill="#fbb03b"/>
    <path id="Tracé_35" data-name="Tracé 35" d="M759.19,547.771c-1.163.381-1.7-.093-1.725-.177s.124-.782,1.287-1.163a8.945,8.945,0,0,1,2.927-.217,8.933,8.933,0,0,1-2.488,1.557Z" transform="translate(-746.542 -538.316)" fill="#fbb03b"/>
    <path id="Tracé_36" data-name="Tracé 36" d="M715.028,317.874c-.377,1.165.1,1.7.183,1.725s.781-.126,1.158-1.291a8.926,8.926,0,0,0,.206-2.928,8.929,8.929,0,0,0-1.547,2.494Z" transform="translate(-704.579 -310.843)" fill="#fbb03b"/>
    <path id="Tracé_37" data-name="Tracé 37" d="M944.695,393.118c-1.049.188-1.452-.285-1.466-.36s.2-.659,1.249-.848a7.787,7.787,0,0,1,2.55.166A7.777,7.777,0,0,1,944.695,393.118Z" transform="translate(-929.63 -386.216)" fill="#fbb03b"/>
    <path id="Tracé_38" data-name="Tracé 38" d="M917.389,181.814c-.465.959-.12,1.475-.05,1.509s.689-.015,1.154-.974a7.77,7.77,0,0,0,.53-2.5A7.773,7.773,0,0,0,917.389,181.814Z" transform="translate(-903.928 -177.267)" fill="#fbb03b"/>
    <path id="Tracé_39" data-name="Tracé 39" d="M1172.184,246.721c-.894.08-1.2-.347-1.2-.411s.217-.538,1.111-.618a6.553,6.553,0,0,1,2.126.328,6.551,6.551,0,0,1-2.034.7Z" transform="translate(-1154.1 -242.149)" fill="#fbb03b"/>
    <path id="Tracé_40" data-name="Tracé 40" d="M1154.611,68.137c-.461.77-.21,1.229-.154,1.262s.579.039,1.04-.731a6.54,6.54,0,0,0,.63-2.057A6.546,6.546,0,0,0,1154.611,68.137Z" transform="translate(-1137.698 -65.66)" fill="#fbb03b"/>
    <path id="Tracé_41" data-name="Tracé 41" d="M1377.853,150.625c-.8-.108-.978-.541-.969-.6s.3-.427,1.094-.319a5.878,5.878,0,0,1,1.793.71A5.873,5.873,0,0,1,1377.853,150.625Z" transform="translate(-1357.034 -147.539)" fill="#fbb03b"/>
    <path id="Tracé_42" data-name="Tracé 42" d="M1372.792,1.022c-.556.581-.428,1.032-.386,1.072s.5.149,1.055-.432a5.856,5.856,0,0,0,.96-1.673,5.867,5.867,0,0,0-1.629,1.032Z" transform="translate(-1352.579)" fill="#fbb03b"/>
    <path id="Tracé_43" data-name="Tracé 43" d="M1502.735,33.7c-.6.292-.633.682-.611.725s.345.261.948-.032a4.882,4.882,0,0,0,1.233-1.028,4.883,4.883,0,0,0-1.57.334Z" transform="translate(-1480.465 -32.899)" fill="#fbb03b"/>
    <path id="Tracé_44" data-name="Tracé 44" d="M2375.652,3164.065c-2.089,1.946-1.725,3.57-1.584,3.721.162.174,1.735.63,3.824-1.315a20.838,20.838,0,0,0,3.743-5.731A20.828,20.828,0,0,0,2375.652,3164.065Z" transform="translate(-2339.728 -3115.184)" fill="#fbb03b"/>
    <path id="Tracé_45" data-name="Tracé 45" d="M2436.514,3662.409c-2.8-.544-3.354-2.116-3.314-2.317.046-.234,1.138-1.453,3.941-.909a20.829,20.829,0,0,1,6.209,2.879A20.844,20.844,0,0,1,2436.514,3662.409Z" transform="translate(-2398.121 -3606.305)" fill="#fbb03b"/>
    <path id="Tracé_46" data-name="Tracé 46" d="M2876.714,2900.56c-1.272,2.386-.445,3.729-.274,3.82.2.107,1.749.031,3.021-2.355a19.744,19.744,0,0,0,1.587-6.285A19.728,19.728,0,0,0,2876.714,2900.56Z" transform="translate(-2834.557 -2854.005)" fill="#fbb03b"/>
    <path id="Tracé_47" data-name="Tracé 47" d="M2980.215,3409.787c-2.678.375-3.655-.863-3.682-1.056-.032-.223.572-1.651,3.25-2.027a19.72,19.72,0,0,1,6.448.667,19.735,19.735,0,0,1-6.016,2.416Z" transform="translate(-2933.622 -3357.522)" fill="#fbb03b"/>
    <path id="Tracé_48" data-name="Tracé 48" d="M3263.228,2617.794c-.543,2.434.523,3.425.7,3.464.2.045,1.561-.4,2.1-2.84a3.081,3.081,0,1,0-2.8-.625Z" transform="translate(-3216.035 -2574.789)" fill="#fbb03b"/>
    <path id="Tracé_49" data-name="Tracé 49" d="M3402.243,3011.91c-2.288.993-3.462.134-3.534-.031-.083-.191.1-1.609,2.39-2.6a18.194,18.194,0,0,1,5.9-1A18.215,18.215,0,0,1,3402.243,3011.91Z" transform="translate(-3349.698 -2964.922)" fill="#fbb03b"/>
    <path id="Tracé_50" data-name="Tracé 50" d="M3533.229,2308.037c-.041,2.294,1.1,2.99,1.268,2.993.191,0,1.333-.652,1.373-2.947a2.833,2.833,0,1,0-2.641-.046Z" transform="translate(-3482.293 -2269.534)" fill="#fbb03b"/>
    <path id="Tracé_51" data-name="Tracé 51" d="M3697.268,2568.377c-1.879,1.318-3.1.76-3.19.625-.11-.157-.206-1.469,1.673-2.787a2.833,2.833,0,1,1,1.517,2.163Z" transform="translate(-3640.775 -2527.274)" fill="#fbb03b"/>
    <path id="Tracé_52" data-name="Tracé 52" d="M3673.724,2018.468c.6,2.065,1.811,2.373,1.959,2.33.172-.05,1.013-.95.418-3.015a2.653,2.653,0,1,0-2.377.686Z" transform="translate(-3620.441 -1984.306)" fill="#fbb03b"/>
    <path id="Tracé_53" data-name="Tracé 53" d="M3894.508,2104c-1.318,1.7-2.562,1.532-2.683,1.437-.142-.111-.588-1.259.73-2.955a2.653,2.653,0,1,1,1.953,1.518Z" transform="translate(-3835.536 -2069.037)" fill="#fbb03b"/>
    <path id="Tracé_54" data-name="Tracé 54" d="M3686.054,1697.074c.9,1.867,2.108,1.962,2.242,1.9.156-.076.81-1.069-.092-2.936a2.56,2.56,0,1,0-2.149,1.038Z" transform="translate(-3631.907 -1667.825)" fill="#fbb03b"/>
    <path id="Tracé_55" data-name="Tracé 55" d="M3959.444,1688.878c-.978,1.828-2.187,1.873-2.318,1.8-.152-.082-.764-1.1.215-2.929a2.56,2.56,0,1,1,2.1,1.127Z" transform="translate(-3899.756 -1659.792)" fill="#fbb03b"/>
    <path id="Tracé_56" data-name="Tracé 56" d="M3668.264,1428.866c1.093,1.477,2.159,1.36,2.265,1.282.123-.092.527-1.064-.565-2.54a13.425,13.425,0,0,0-3.393-2.807A13.412,13.412,0,0,0,3668.264,1428.866Z" transform="translate(-3613.713 -1404.27)" fill="#fbb03b"/>
    <path id="Tracé_57" data-name="Tracé 57" d="M3964.6,1332.946c-.55,1.752-1.595,1.991-1.721,1.951-.146-.046-.847-.833-.3-2.585a2.268,2.268,0,1,1,2.017.634Z" transform="translate(-3905.253 -1309.407)" fill="#fbb03b"/>
    <path id="Tracé_58" data-name="Tracé 58" d="M3585.733,1151.734c1.187,1.212,2.146.971,2.233.886s.349-1.04-.837-2.252a12.382,12.382,0,0,0-3.458-2.138,12.38,12.38,0,0,0,2.063,3.5Z" transform="translate(-3532.008 -1131.687)" fill="#fbb03b"/>
    <path id="Tracé_59" data-name="Tracé 59" d="M3885.835,1004.945c-.281,1.673-1.206,2.023-1.328,2-.139-.024-.879-.655-.6-2.327a2.094,2.094,0,1,1,1.925.325Z" transform="translate(-3827.857 -986.471)" fill="#fbb03b"/>
    <path id="Tracé_60" data-name="Tracé 60" d="M3472.057,919.744c1.2.852,1.979.5,2.041.414s.138-.94-1.06-1.793a10.739,10.739,0,0,0-3.278-1.295A10.729,10.729,0,0,0,3472.057,919.744Z" transform="translate(-3419.74 -903.859)" fill="#fbb03b"/>
    <path id="Tracé_61" data-name="Tracé 61" d="M3748.327,730.952c.016,1.47-.719,1.91-.826,1.912-.123,0-.851-.424-.867-1.894a1.815,1.815,0,1,1,1.692-.018Z" transform="translate(-3692.622 -717.062)" fill="#fbb03b"/>
    <path id="Tracé_62" data-name="Tracé 62" d="M3345.817,709.261c1.185.609,1.841.191,1.885.106s0-.862-1.184-1.471a9.732,9.732,0,0,0-3.109-.736A9.725,9.725,0,0,0,3345.817,709.261Z" transform="translate(-3295.211 -696.975)" fill="#fbb03b"/>
    <path id="Tracé_63" data-name="Tracé 63" d="M3596.187,496.787c.205,1.317-.4,1.807-.492,1.823s-.818-.27-1.023-1.587a1.646,1.646,0,1,1,1.516-.236Z" transform="translate(-3542.8 -486.731)" fill="#fbb03b"/>
    <path id="Tracé_64" data-name="Tracé 64" d="M3188.489,547.771c1.163.381,1.7-.093,1.725-.177s-.124-.782-1.287-1.163a8.941,8.941,0,0,0-2.926-.217,8.929,8.929,0,0,0,2.488,1.557Z" transform="translate(-3140.071 -538.316)" fill="#fbb03b"/>
    <path id="Tracé_65" data-name="Tracé 65" d="M3402.755,317.874c.377,1.165-.1,1.7-.183,1.725s-.781-.126-1.158-1.291a8.91,8.91,0,0,1-.206-2.928,8.937,8.937,0,0,1,1.547,2.494Z" transform="translate(-3352.139 -310.843)" fill="#fbb03b"/>
    <path id="Tracé_66" data-name="Tracé 66" d="M3031.523,393.118c1.049.188,1.452-.285,1.466-.36s-.2-.659-1.25-.848a7.786,7.786,0,0,0-2.549.166A7.785,7.785,0,0,0,3031.523,393.118Z" transform="translate(-2985.521 -386.216)" fill="#fbb03b"/>
    <path id="Tracé_67" data-name="Tracé 67" d="M3190.564,181.814c.465.959.119,1.475.05,1.509s-.689-.015-1.154-.974a7.78,7.78,0,0,1-.53-2.5A7.769,7.769,0,0,1,3190.564,181.814Z" transform="translate(-3142.958 -177.267)" fill="#fbb03b"/>
    <path id="Tracé_68" data-name="Tracé 68" d="M2842.435,246.721c.894.08,1.2-.347,1.2-.411s-.217-.538-1.111-.618a6.555,6.555,0,0,0-2.127.328,6.551,6.551,0,0,0,2.035.7Z" transform="translate(-2799.453 -242.149)" fill="#fbb03b"/>
    <path id="Tracé_69" data-name="Tracé 69" d="M2959.056,68.137c.461.77.21,1.229.154,1.262s-.579.039-1.041-.731a6.543,6.543,0,0,1-.63-2.057A6.546,6.546,0,0,1,2959.056,68.137Z" transform="translate(-2914.904 -65.66)" fill="#fbb03b"/>
    <path id="Tracé_70" data-name="Tracé 70" d="M2660.718,150.625c.8-.108.978-.541.97-.6s-.3-.427-1.094-.319a5.872,5.872,0,0,0-1.793.71A5.871,5.871,0,0,0,2660.718,150.625Z" transform="translate(-2620.471 -147.539)" fill="#fbb03b"/>
    <path id="Tracé_71" data-name="Tracé 71" d="M2722.509,1.022c.556.581.428,1.032.386,1.072s-.5.149-1.055-.432a5.863,5.863,0,0,1-.96-1.673,5.866,5.866,0,0,1,1.629,1.032Z" transform="translate(-2681.656)" fill="#fbb03b"/>
    <path id="Tracé_72" data-name="Tracé 72" d="M2583.78,33.7c.6.292.632.682.611.725s-.346.261-.948-.032a4.88,4.88,0,0,1-1.234-1.028,4.885,4.885,0,0,1,1.57.334Z" transform="translate(-2544.984 -32.899)" fill="#fbb03b"/>
    <path id="Tracé_73" data-name="Tracé 73" d="M1822.213,3682.227a15.128,15.128,0,0,1,3.791,2.682,13.958,13.958,0,0,1,2.785,3.946,2.877,2.877,0,0,0,1.058-.438s-3.12-5.106-7.427-6.5C1822.419,3681.917,1822.162,3681.84,1822.213,3682.227Z" transform="translate(-1795.937 -3628.843)" fill="#fbb03b"/>
    <path id="Tracé_74" data-name="Tracé 74" d="M1877.954,3682.227a15.132,15.132,0,0,0-3.791,2.682,13.957,13.957,0,0,0-2.785,3.946,2.876,2.876,0,0,1-1.058-.438s3.121-5.106,7.427-6.5C1877.748,3681.917,1878.005,3681.84,1877.954,3682.227Z" transform="translate(-1843.358 -3628.843)" fill="#fbb03b"/>
  </g>
</svg>
