<svg xmlns="http://www.w3.org/2000/svg" width="76" height="76" viewBox="0 0 76 76">
  <path id="hr-group_13794526" d="M75.993,22.167V60.9a9.5,9.5,0,0,1-2.445,6.365L65.667,76H57.139L68.846,63.023a3.178,3.178,0,0,0,.817-2.125V22.167a3.167,3.167,0,0,0-6.333,0V47.5h-.016a9.456,9.456,0,0,1-2.2,6.086l-8.164,8.5L48.383,57.7,56.4,49.356c1.419-1.491.275-3.433-.209-3.974a3.157,3.157,0,0,0-4.452-.244l-9.209,8.474a9.513,9.513,0,0,1,1.8,5.561V76H38V59.172a3.167,3.167,0,0,0-1.023-2.327L24.228,45.112a3.155,3.155,0,0,0-4.49,4.4l8.138,8.458-4.563,4.389-8.284-8.616A9.782,9.782,0,0,1,12.7,47.5h-.035V22.167a3.167,3.167,0,0,0-6.333,0V60.9a3.178,3.178,0,0,0,.817,2.125L18.857,76H10.329L2.448,67.263A9.5,9.5,0,0,1,0,60.9V22.167A9.5,9.5,0,0,1,17.47,17a4.731,4.731,0,0,1,3.116-1.168h4.75a12.317,12.317,0,0,0,1.27,5.437A11.023,11.023,0,0,0,22.271,29.1v2.581A15.969,15.969,0,0,0,19,31.993v6.549a9.5,9.5,0,0,1,9.487,1.881L38,49.175l9.484-8.727A9.532,9.532,0,0,1,57,38.541V32a16,16,0,0,0-3.274-.31V29.026A11.019,11.019,0,0,0,49.4,21.267a12.361,12.361,0,0,0,1.27-5.437h4.75A4.715,4.715,0,0,1,58.536,17,9.5,9.5,0,0,1,76,22.163Zm-33.25,3.167h-9.5a4.752,4.752,0,0,0-4.75,4.75v2.91A15.8,15.8,0,0,1,32.705,35.7l5.288,4.864,5.193-4.782a16.119,16.119,0,0,1,4.307-2.768V30.077a4.752,4.752,0,0,0-4.75-4.75ZM25.327,12.667a6.333,6.333,0,1,0-6.333-6.333A6.332,6.332,0,0,0,25.327,12.667Zm12.667,9.5a6.333,6.333,0,1,0-6.333-6.333A6.332,6.332,0,0,0,37.993,22.167Zm12.667-9.5a6.333,6.333,0,1,0-6.333-6.333A6.332,6.332,0,0,0,50.66,12.667Z" transform="translate(-0.003)" fill="#0a082e"/>
</svg>
