<svg xmlns="http://www.w3.org/2000/svg" xmlns:xlink="http://www.w3.org/1999/xlink" width="379.373" height="90.712" viewBox="0 0 379.373 90.712">
  <defs>
    <clipPath id="clip-path">
      <path id="Tracé_77" data-name="Tracé 77" d="M23.643,0A11.344,11.344,0,0,0,12.558,11.855c.206,5.925-.062,13.6-1.993,19.857C8.627,37.988,5.351,41.956,0,42.466v5.781c5.352.51,8.627,4.477,10.564,10.754,1.932,6.258,2.2,13.932,1.993,19.857A11.344,11.344,0,0,0,23.643,90.712H90.2a11.344,11.344,0,0,0,11.086-11.855c-.206-5.925.062-13.6,1.993-19.857,1.938-6.277,5.205-10.244,10.556-10.754V42.466c-5.351-.51-8.619-4.477-10.556-10.754-1.931-6.258-2.2-13.932-1.993-19.857A11.344,11.344,0,0,0,90.2,0Z" fill="none"/>
    </clipPath>
    <linearGradient id="linear-gradient" x1="0.099" y1="0.812" x2="0.1" y2="0.812" gradientUnits="objectBoundingBox">
      <stop offset="0" stop-color="#9013fe"/>
      <stop offset="1" stop-color="#6610f2"/>
    </linearGradient>
    <clipPath id="clip-path-2">
      <path id="Tracé_78" data-name="Tracé 78" d="M185.574,121.7h10.139c7.262,0,11.03,2.675,11.03,7.891s-3.665,7.991-10.584,7.991H185.574Zm0-20.128h10.208c5.549,0,8.7,2.474,8.7,6.954,0,4.781-3.665,7.456-10.31,7.456h-8.6ZM177.9,95.457V143.7h19.833c10.516,0,16.852-5.149,16.852-13.641,0-6.419-4.521-11.067-11.235-11.8v-.267a10.779,10.779,0,0,0,8.8-10.5c0-7.289-5.754-12.037-14.523-12.037Z" transform="translate(-177.901 -95.457)" fill="none"/>
    </clipPath>
    <linearGradient id="linear-gradient-2" x1="-0.531" y1="1.253" x2="-0.527" y2="1.253" gradientUnits="objectBoundingBox">
      <stop offset="0" stop-color="#fff"/>
      <stop offset="1" stop-color="#f1e5fc"/>
    </linearGradient>
    <clipPath id="clip-path-3">
      <rect id="Rectangle_12" data-name="Rectangle 12" width="113.785" height="90.359" fill="none"/>
    </clipPath>
  </defs>
  <g id="Groupe_37" data-name="Groupe 37" transform="translate(-40.537 -381.846)">
    <g id="react-logo" transform="translate(214.239 393.927)">
      <g id="Groupe_2" data-name="Groupe 2" transform="translate(0 0)">
        <ellipse id="Ellipse_7" data-name="Ellipse 7" cx="6.988" cy="6.988" rx="6.988" ry="6.988" transform="translate(30.468 26.221)" fill="#00d8ff"/>
        <g id="Groupe_1" data-name="Groupe 1">
          <path id="Tracé_8" data-name="Tracé 8" d="M37.5,9.4C46.88,9.4,55.6,10.743,62.167,13c7.918,2.726,12.786,6.857,12.786,10.6,0,3.9-5.159,8.288-13.662,11.1C54.863,36.838,46.4,37.95,37.5,37.95c-9.131,0-17.777-1.044-24.277-3.265C5,31.874.043,27.428.043,23.6c0-3.711,4.648-7.811,12.454-10.532,6.6-2.3,15.526-3.675,25-3.675Z" transform="translate(-0.043 9.606)" fill="none" stroke="#00d8ff" stroke-width="1.663" fill-rule="evenodd"/>
          <path id="Tracé_9" data-name="Tracé 9" d="M17.531,26.13c4.687-8.161,10.207-15.067,15.45-19.649C39.3.962,45.308-1.2,48.549.677c3.377,1.956,4.6,8.646,2.8,17.455-1.365,6.66-4.629,14.576-9.078,22.323C37.7,48.4,32.481,55.395,27.31,59.934c-6.544,5.744-12.87,7.823-16.183,5.9-3.215-1.86-4.444-7.961-2.9-16.117,1.3-6.891,4.573-15.35,9.3-23.591Z" transform="translate(7.556 -0.014)" fill="none" stroke="#00d8ff" stroke-width="1.663" fill-rule="evenodd"/>
          <path id="Tracé_10" data-name="Tracé 10" d="M17.533,40.437c-4.7-8.152-7.9-16.4-9.236-23.254C6.689,8.931,7.826,2.621,11.064.739c3.374-1.962,9.758.314,16.455,6.286,5.064,4.515,10.264,11.306,14.726,19.046,4.575,7.935,8,15.974,9.337,22.74,1.688,8.562.322,15.1-2.988,17.027-3.212,1.867-9.088-.11-15.355-5.525C27.944,55.739,22.279,48.67,17.533,40.437Z" transform="translate(7.566 0.024)" fill="none" stroke="#00d8ff" stroke-width="1.663" fill-rule="evenodd"/>
        </g>
      </g>
      <path id="Tracé_11" data-name="Tracé 11" d="M76.192,54.805,67.627,41.866c4.329-.382,8.229-3.518,8.229-9.248,0-5.83-4.138-9.562-9.942-9.562H53.168V54.781h3.949V42.176h6.327L71.53,54.781ZM65.442,38.728H57.119V26.6h8.323c3.76,0,6.327,2.473,6.327,6.041s-2.569,6.092-6.327,6.092ZM90.89,55.374a12.485,12.485,0,0,0,9.134-3.518l-1.713-2.332a10.043,10.043,0,0,1-7.087,2.9c-4.946,0-7.992-3.615-8.277-7.941h18.6v-.9c0-6.9-4.091-12.32-11.037-12.32-6.564,0-11.319,5.376-11.319,12.035,0,7.183,4.9,12.063,11.7,12.063Zm7.137-13.51H82.949c.191-3.518,2.614-7.66,7.515-7.66C95.7,34.2,97.979,38.438,98.028,41.864ZM125.237,54.8V39.011c0-5.565-4.041-7.754-8.894-7.754a12.019,12.019,0,0,0-9.18,3.806l1.665,2.473a9.129,9.129,0,0,1,7.041-3.187c3.329,0,5.8,1.759,5.8,4.851v4.138a9.606,9.606,0,0,0-7.612-3.14c-3.9,0-8.042,2.427-8.042,7.563,0,4.994,4.138,7.612,8.042,7.612a9.938,9.938,0,0,0,7.612-3.187V54.8Zm-9.892-2c-3.329,0-5.662-2.091-5.662-4.994,0-2.949,2.332-5.042,5.662-5.042a7.694,7.694,0,0,1,6.327,2.855v4.329a7.7,7.7,0,0,1-6.327,2.855Zm27.141,2.569a9.839,9.839,0,0,0,8.42-3.995l-2.378-2.187a6.918,6.918,0,0,1-5.83,3c-4.9,0-7.941-3.806-7.941-8.894s3.044-8.846,7.941-8.846a6.758,6.758,0,0,1,5.83,3l2.378-2.187a9.832,9.832,0,0,0-8.42-3.995c-6.85,0-11.464,5.233-11.464,12.035,0,6.85,4.614,12.063,11.464,12.063Zm19.22,0A5.847,5.847,0,0,0,165.99,53.9l-1.045-2.664a3.41,3.41,0,0,1-2.427.951c-1.568,0-2.332-1.236-2.332-2.949V34.968h4.664V31.83h-4.664V25.551h-3.569V31.83h-3.806v3.14h3.806V50c0,3.426,1.713,5.376,5.091,5.376Z" transform="translate(39.682 -3.726)" fill="#00d8ff" fill-rule="evenodd"/>
    </g>
    <g id="bootstrap_logo" transform="translate(40.537 381.846)">
      <g id="Groupe_4" data-name="Groupe 4">
        <g id="Groupe_3" data-name="Groupe 3" clip-path="url(#clip-path)">
          <rect id="Rectangle_10" data-name="Rectangle 10" width="141.824" height="145.558" transform="matrix(0.622, -0.783, 0.783, 0.622, -44.173, 55.648)" fill="url(#linear-gradient)"/>
        </g>
      </g>
      <g id="Groupe_6" data-name="Groupe 6" transform="translate(39.554 21.223)">
        <g id="Groupe_5" data-name="Groupe 5" clip-path="url(#clip-path-2)">
          <rect id="Rectangle_11" data-name="Rectangle 11" width="56.134" height="60.202" transform="matrix(0.861, -0.509, 0.509, 0.861, -21.138, 12.498)" fill="url(#linear-gradient-2)"/>
        </g>
      </g>
      <g id="Groupe_8" data-name="Groupe 8" transform="translate(0.025 0.177)">
        <g id="Groupe_7" data-name="Groupe 7" clip-path="url(#clip-path-3)">
          <path id="Tracé_79" data-name="Tracé 79" d="M197.734,143.7c10.516,0,16.852-5.149,16.852-13.641,0-6.419-4.521-11.067-11.235-11.8v-.267a10.779,10.779,0,0,0,8.8-10.5c0-7.289-5.754-12.037-14.523-12.037H177.9V143.7Zm-12.16-42.128h10.208c5.549,0,8.7,2.474,8.7,6.954,0,4.781-3.665,7.456-10.31,7.456h-8.6Zm0,36.009V121.7h10.139c7.262,0,11.03,2.675,11.03,7.891s-3.665,7.991-10.584,7.991Z" transform="translate(-138.372 -74.411)" fill="none" stroke="#fff" stroke-width="1"/>
        </g>
      </g>
    </g>
  </g>
</svg>
