<svg id="gamepad_5529134" xmlns="http://www.w3.org/2000/svg" width="103.233" height="81.388" viewBox="0 0 103.233 81.388">
  <path id="Tracé_1" data-name="Tracé 1" d="M95.523,64.883A21.6,21.6,0,0,0,77.1,54.174H25.7A21.6,21.6,0,0,0,7.282,64.883,57.449,57.449,0,0,0,0,92.726c0,23.559,9.424,42.835,21.418,42.835,6.425,0,11.566-6,15.421-18.419a4.255,4.255,0,0,1,4.284-3H62.111a5.158,5.158,0,0,1,4.284,3c3.855,12.422,9,18.419,15.421,18.419,11.994,0,21.418-19.276,21.418-42.835A63.064,63.064,0,0,0,95.523,64.883ZM81.387,126.994c-1.285,0-4.284-3.427-7.282-12.422a12.849,12.849,0,0,0-12.422-9H41.122a13.409,13.409,0,0,0-12.422,9c-3,9-6,12.422-7.282,12.422-4.284,0-12.85-13.279-12.85-34.268a50.645,50.645,0,0,1,6-23.559A13.914,13.914,0,0,1,25.7,62.741H77.1a13.914,13.914,0,0,1,11.137,6.425,50.648,50.648,0,0,1,6,23.559C94.238,113.715,85.671,126.994,81.387,126.994Z" transform="translate(0 -54.174)" fill="#0a082e"/>
  <path id="Tracé_2" data-name="Tracé 2" d="M104.033,156.813h-3.74v-3.74a3.74,3.74,0,1,0-7.479,0v3.74h-3.74a3.74,3.74,0,0,0,0,7.479h3.739v3.74a3.74,3.74,0,1,0,7.479,0v-3.74h3.74a3.74,3.74,0,0,0,0-7.479Z" transform="translate(-67.274 -128.574)" fill="#0a082e"/>
  <ellipse id="Ellipse_4" data-name="Ellipse 4" cx="5.38" cy="5.38" rx="5.38" ry="5.38" transform="translate(72.844 21.219)" fill="#0a082e"/>
  <ellipse id="Ellipse_5" data-name="Ellipse 5" cx="5.38" cy="5.38" rx="5.38" ry="5.38" transform="translate(60.564 33.301)" fill="#0a082e"/>
</svg>
