<svg xmlns="http://www.w3.org/2000/svg" width="320" height="80" viewBox="0 0 320 80">
  <g id="Groupe_24" data-name="Groupe 24" transform="translate(0.024)">
    <g id="Indesign" transform="translate(237)">
      <rect id="Fond_logo_id" data-name="Fond logo id" width="83" height="80" rx="5" transform="translate(-0.024)" fill="#49021f"/>
      <path id="Indesign-2" data-name="Indesign" d="M21.954,48.169c0,.328-.056.432-.438.432H16.422c-.332,0-.438-.164-.438-.432V12.995c0-.328.166-.432.438-.432h5.15c.272,0,.381.108.381.38V48.169Zm5.87-12.686c0-7.84,5.233-13.947,13.6-13.947.71,0,1.094,0,1.751.049v-8.7a.318.318,0,0,1,.332-.328H48.9c.279,0,.332.111.332.275V43.487a24.112,24.112,0,0,0,.166,3.289c0,.216-.066.272-.289.38a20.312,20.312,0,0,1-8.7,1.949c-7.339,0-12.592-4.488-12.592-13.623Zm15.354-8.6a4.968,4.968,0,0,0-1.97-.328c-4.261,0-7.253,3.243-7.253,8.649,0,6.166,3.044,8.649,6.875,8.649a6.489,6.489,0,0,0,2.355-.377V26.886Z" transform="translate(8.32 8.893)" fill="#f36"/>
    </g>
    <g id="Illustrator" transform="translate(119.502)">
      <rect id="Fond_logo_ai" data-name="Fond logo ai" width="82" height="80" rx="5" fill="#300"/>
      <path id="Ilustrator" d="M21.76,38.8,19.1,48.674c-.057.273-.168.336-.5.336H13.672c-.336,0-.386-.109-.336-.487l9.54-32.747a9.97,9.97,0,0,0,.329-2.743c0-.217.111-.329.279-.329h7.041c.222,0,.336.059.39.329l10.7,35.543c.057.273,0,.435-.279.435H35.791c-.279,0-.443-.066-.5-.283L32.523,38.8H21.75Zm9.365-5.351c-.941-3.642-3.158-11.617-3.991-15.476h-.057c-.719,3.853-2.492,10.372-3.88,15.476Zm15.116-18.3a3.437,3.437,0,0,1,6.873,0,3.188,3.188,0,0,1-3.493,3.369,3.127,3.127,0,0,1-3.393-3.369Zm.376,7.488c0-.263.111-.362.39-.362h5.274c.3,0,.4.109.4.382v26c0,.273-.054.382-.386.382H47.091c-.336,0-.447-.165-.447-.428V22.634Z" transform="translate(6.816 8.675)" fill="#ff9a00"/>
    </g>
    <g id="Photoshop">
      <rect id="Fond_logo_ps" data-name="Fond logo ps" width="80" height="80" rx="5" transform="translate(-0.024)" fill="#001e36"/>
      <path id="Photoshop-2" data-name="Photoshop" d="M13.292,12.922c0-.219.434-.379.694-.379,2-.108,4.921-.163,7.989-.163,8.59,0,11.931,4.968,11.931,11.329,0,8.3-5.708,11.865-12.712,11.865-1.178,0-1.58-.056-2.4-.056V48.075c0,.271-.1.379-.356.379H13.651c-.257,0-.356-.1-.356-.369V12.922Zm5.5,17.362c.713.052,1.277.052,2.51.052,3.626,0,7.035-1.347,7.035-6.524,0-4.151-2.436-6.256-6.576-6.256-1.227,0-2.4.052-2.966.108v12.63ZM45.465,26.4c-2.454,0-3.273,1.294-3.273,2.373,0,1.186.558,1.994,3.833,3.775,4.859,2.484,6.39,4.854,6.39,8.358,0,5.23-3.781,8.041-8.894,8.041a12.957,12.957,0,0,1-6.353-1.405c-.2-.108-.248-.268-.248-.539V42.208c0-.327.149-.435.353-.275a10.989,10.989,0,0,0,6.235,1.941c2.454,0,3.477-1.079,3.477-2.536,0-1.186-.713-2.213-3.833-3.939-4.4-2.223-6.241-4.478-6.241-8.26,0-4.207,3.118-7.714,8.538-7.714a13.774,13.774,0,0,1,5.56.915.726.726,0,0,1,.31.647v4.478c0,.271-.155.435-.465.327a10.644,10.644,0,0,0-5.4-1.405Z" transform="translate(6.013 9.077)" fill="#31a7ff"/>
    </g>
  </g>
</svg>
