<svg xmlns="http://www.w3.org/2000/svg" width="100.549" height="100" viewBox="0 0 100.549 100">
  <path id="Icon_material-round-family-restroom" data-name="Icon material-round-family-restroom" d="M73,13A10,10,0,1,1,83,23,9.965,9.965,0,0,1,73,13ZM93,98V73h5.55a5.033,5.033,0,0,0,4.75-6.6L92.8,34.85A10.05,10.05,0,0,0,83.3,28h-.6a10,10,0,0,0-9.5,6.85l-4.3,12.9A17.431,17.431,0,0,1,78,63v40H88A5.015,5.015,0,0,0,93,98ZM55.5,50.5A7.5,7.5,0,1,0,48,43,7.49,7.49,0,0,0,55.5,50.5ZM20.5,23a10,10,0,1,0-10-10A9.965,9.965,0,0,0,20.5,23Zm10,75V68H33a5.015,5.015,0,0,0,5-5V38A10.029,10.029,0,0,0,28,28H13A10.029,10.029,0,0,0,3,38V63a5.015,5.015,0,0,0,5,5h2.5V98a5.015,5.015,0,0,0,5,5h10A5.015,5.015,0,0,0,30.5,98ZM43,63V78a5.015,5.015,0,0,0,5,5V98a5.015,5.015,0,0,0,5,5h5a5.015,5.015,0,0,0,5-5V83a5.015,5.015,0,0,0,5-5V63a7.555,7.555,0,0,0-7.5-7.5h-10A7.555,7.555,0,0,0,43,63" transform="translate(-3 -3)" fill="#0a082e"/>
</svg>
