<svg xmlns="http://www.w3.org/2000/svg" width="96.352" height="103" viewBox="0 0 96.352 103">
  <g id="Groupe_38" data-name="Groupe 38" transform="translate(0 3)">
    <path id="Icon_fa-solid-hands-holding" data-name="Icon fa-solid-hands-holding" d="M12.042,10.58A6.021,6.021,0,1,0,0,10.58V44.25A14.661,14.661,0,0,0,4.23,54.572L19.267,69.757A9.589,9.589,0,0,0,26.086,72.6h10.04a7.263,7.263,0,0,0,7.225-7.3V53.31a17.114,17.114,0,0,0-4.937-12.039l-3.808-3.846-2.288-2.311L27.5,30.25a4.791,4.791,0,0,0-6.819,0,4.906,4.906,0,0,0,0,6.886L25.5,42l2.288,2.311a3.75,3.75,0,0,1-.557,5.746,3.669,3.669,0,0,1-4.666-.471l-7.707-7.768a9.781,9.781,0,0,1-2.815-6.886V10.58Zm72.253,0V34.932a9.781,9.781,0,0,1-2.815,6.886l-7.692,7.768a3.669,3.669,0,0,1-4.666.471,3.751,3.751,0,0,1-.557-5.746L70.853,42l4.817-4.864a4.906,4.906,0,0,0,0-6.886,4.791,4.791,0,0,0-6.819,0l-4.817,4.864-2.288,2.311-3.808,3.846A17.114,17.114,0,0,0,53,53.31V65.3a7.263,7.263,0,0,0,7.225,7.3h10.04a9.589,9.589,0,0,0,6.819-2.843L92.122,54.572a14.661,14.661,0,0,0,4.23-10.321V10.58a6.021,6.021,0,1,0-12.042,0Z" transform="translate(0 27.4)" fill="#0a082e"/>
    <g id="Icon_akar-arrow-cycle" data-name="Icon akar-arrow-cycle" transform="translate(26.077)">
      <path id="Tracé_81" data-name="Tracé 81" d="M47.2,25.1c0,13.259-9.7,22.1-21.67,22.1C15.8,47.2,7.95,42.038,5.21,33.939M3,25.1C3,11.84,12.7,3,24.67,3,34.4,3,42.248,8.16,44.988,16.259" transform="translate(-3 -3)" fill="none" stroke="#0a082e" stroke-linecap="round" stroke-linejoin="round" stroke-width="6"/>
      <path id="Tracé_82" data-name="Tracé 82" d="M14.05,34.729l-8.84-2.21L3,41.359M36.149,12.63l8.84,2.21L47.2,6" transform="translate(-3 -1.58)" fill="none" stroke="#0a082e" stroke-linecap="round" stroke-linejoin="round" stroke-width="6"/>
    </g>
  </g>
</svg>
