<svg xmlns="http://www.w3.org/2000/svg" width="128.571" height="100" viewBox="0 0 128.571 100">
  <path id="Icon_fa-solid-stairs" data-name="Icon fa-solid-stairs" d="M85.714,9.393A7.135,7.135,0,0,1,92.857,2.25h28.571a7.143,7.143,0,0,1,0,14.286H100V37.964a7.135,7.135,0,0,1-7.143,7.143H71.429V66.536a7.135,7.135,0,0,1-7.143,7.143H42.857V95.107a7.135,7.135,0,0,1-7.143,7.143H7.143a7.143,7.143,0,1,1,0-14.286H28.571V66.536a7.135,7.135,0,0,1,7.143-7.143H57.143V37.964a7.135,7.135,0,0,1,7.143-7.143H85.714Z" transform="translate(0 -2.25)" fill="#0a082e"/>
</svg>
