<svg xmlns="http://www.w3.org/2000/svg" width="44.603" height="35.993" viewBox="0 0 44.603 35.993">
  <path id="Icon_fa-solid-cloud-moon" data-name="Icon fa-solid-cloud-moon" d="M34.861,0c.387,0,.766.014,1.146.049a1.123,1.123,0,0,1,.464,2.1,10.314,10.314,0,0,0,6.813,19.146,1.124,1.124,0,0,1,.977,1.913,13.436,13.436,0,0,1-9.394,3.825,14.533,14.533,0,0,1-1.927-.134,7.923,7.923,0,0,0-3.7-3.635,7.875,7.875,0,0,0-7.678-7.5,13.838,13.838,0,0,1-.183-2.236A13.49,13.49,0,0,1,34.861,0ZM31.493,30.368a5.623,5.623,0,0,1-5.625,5.625H6.75a6.748,6.748,0,0,1-1.125-13.4V22.5a6.75,6.75,0,0,1,12.53-3.487A5.626,5.626,0,0,1,27,23.625a5.27,5.27,0,0,1-.134,1.209,5.626,5.626,0,0,1,4.627,5.534Z" fill="#00bcd4"/>
</svg>
