<svg xmlns="http://www.w3.org/2000/svg" width="32.344" height="32.344" viewBox="0 0 32.344 32.344">
  <path id="Icon_ion-sunny" data-name="Icon ion-sunny" d="M18,8.3A1.547,1.547,0,0,1,16.453,6.75V3.375a1.547,1.547,0,0,1,3.094,0V6.75A1.547,1.547,0,0,1,18,8.3Zm0,25.875a1.547,1.547,0,0,1-1.547-1.547V29.25a1.547,1.547,0,1,1,3.094,0v3.375A1.547,1.547,0,0,1,18,34.172Zm7.955-22.58a1.547,1.547,0,0,1-1.094-2.64l2.386-2.386a1.547,1.547,0,1,1,2.188,2.188l-2.386,2.386a1.542,1.542,0,0,1-1.093.453Zm-18.3,18.3a1.547,1.547,0,0,1-1.093-2.641l2.386-2.386a1.547,1.547,0,1,1,2.188,2.188L8.753,29.435a1.543,1.543,0,0,1-1.094.454ZM32.625,19.547H29.25a1.547,1.547,0,1,1,0-3.094h3.375a1.547,1.547,0,0,1,0,3.094Zm-25.875,0H3.375a1.547,1.547,0,0,1,0-3.094H6.75a1.547,1.547,0,0,1,0,3.094ZM28.342,29.888a1.543,1.543,0,0,1-1.094-.454l-2.386-2.386a1.547,1.547,0,1,1,2.188-2.188l2.386,2.387a1.547,1.547,0,0,1-1.093,2.641Zm-18.3-18.3a1.539,1.539,0,0,1-1.093-.453L6.565,8.753A1.547,1.547,0,1,1,8.753,6.565l2.386,2.387a1.547,1.547,0,0,1-1.094,2.64ZM18,25.172A7.172,7.172,0,1,1,25.172,18,7.172,7.172,0,0,1,18,25.172Z" transform="translate(-1.828 -1.828)" fill="#00bcd4"/>
</svg>
