<svg xmlns="http://www.w3.org/2000/svg" width="100.543" height="67.668" viewBox="0 0 100.543 67.668">
  <path id="language_9821544" d="M79.6,4H20.946A21.047,21.047,0,0,0,0,25.146V50.522A21.049,21.049,0,0,0,20.946,71.668H79.6a21.071,21.071,0,0,0,20.946-21.146V25.146A21.071,21.071,0,0,0,79.6,4ZM34.025,54.751h-.008a2.937,2.937,0,0,1-2.857-2.3l-1.11-4.893H19.958l-1.148,4.91A2.933,2.933,0,1,1,13.1,51.114l5.919-25.346a6.229,6.229,0,0,1,8.613-4.318,6.365,6.365,0,0,1,3.527,4.525l5.71,25.156a2.952,2.952,0,0,1-2.857,3.62Zm58.139-4.229A12.644,12.644,0,0,1,79.6,63.21H50.272V12.459H79.6A12.644,12.644,0,0,1,92.165,25.146Zm-6.284-22.77v.089A2.594,2.594,0,0,1,83.3,30.446H81.976A29.655,29.655,0,0,1,75.244,46.8a19.117,19.117,0,0,0,8.312,2.7,2.591,2.591,0,0,1,2.325,2.593v.089a2.6,2.6,0,0,1-2.849,2.593A23.687,23.687,0,0,1,71.268,50.45,23.707,23.707,0,0,1,59.4,54.772a2.6,2.6,0,0,1-2.845-2.6v-.089a2.613,2.613,0,0,1,2.38-2.6A19.055,19.055,0,0,0,67.221,46.8a26.562,26.562,0,0,1-3.49-5.189,2.6,2.6,0,0,1,2.3-3.789h.042a2.543,2.543,0,0,1,2.266,1.362,21.22,21.22,0,0,0,2.9,4.238A24.085,24.085,0,0,0,76.7,30.437H59.145a2.594,2.594,0,0,1-2.581-2.605v-.089a2.594,2.594,0,0,1,2.581-2.605H68.6V23.514a2.594,2.594,0,0,1,2.581-2.605h.088a2.594,2.594,0,0,1,2.581,2.605v1.624H83.3a2.594,2.594,0,0,1,2.581,2.605ZM25.408,27.1l3.3,14.536H21.344l3.4-14.536a.341.341,0,0,1,.331-.266.337.337,0,0,1,.331.266Z" transform="translate(0 -4)" fill="#0a082e"/>
</svg>
