<svg xmlns="http://www.w3.org/2000/svg" width="61.631" height="60.11" viewBox="0 0 61.631 60.11">
  <path id="Icon_akar-github-fill" data-name="Icon akar-github-fill" d="M30.815,0A30.817,30.817,0,0,0,21.07,60.052c1.541.27,2.119-.655,2.119-1.464,0-.732-.039-3.159-.039-5.739-7.742,1.425-9.745-1.887-10.362-3.621-.347-.886-1.849-3.621-3.159-4.353-1.079-.578-2.619-2-.039-2.042,2.427-.039,4.16,2.234,4.738,3.159,2.773,4.661,7.2,3.351,8.975,2.542a6.482,6.482,0,0,1,1.964-4.122c-6.856-.77-14.021-3.428-14.021-15.215a11.993,11.993,0,0,1,3.159-8.282,11.073,11.073,0,0,1,.308-8.166s2.581-.809,8.474,3.159a29.053,29.053,0,0,1,15.408,0c5.893-4.006,8.474-3.159,8.474-3.159a11.073,11.073,0,0,1,.308,8.166A11.923,11.923,0,0,1,50.537,29.2c0,11.825-7.2,14.445-14.06,15.215,1.117.963,2.08,2.812,2.08,5.7,0,4.122-.039,7.434-.039,8.474,0,.809.578,1.772,2.119,1.464A30.832,30.832,0,0,0,30.815,0Z" fill="#00bcd4"/>
</svg>
