<?xml version="1.0" encoding="UTF-8"?>
<svg id="Calque_1" data-name="Calque 1" xmlns="http://www.w3.org/2000/svg" viewBox="0 0 376.75 420.57">
  <defs>
    <style>
      .cls-1 {
        fill: #d8a952;
      }

      .cls-2 {
        fill: #1a0e04;
      }
    </style>
  </defs>
  <path class="cls-2" d="m188.81,200.71s-.84-.01-1.05-.05c-22.07-3.46-46.67-5.78-64.95-1.62l.49,7.21c7.67.68,1.84,27.33,32.03,25.88,11.14.24,21.38-1.08,30.84-21.62.4-.86,1.41-1.45,2.58-1.45h.07m-34.42,21.1c-16.02-.54-23.45-8.72-21.74-24.52.34-10.88,44.74-7.29,46.98,0-1.51,17.6-9.5,25.04-25.24,24.52Z"/>
  <path class="cls-2" d="m188.81,209.05h.07c1.17,0,2.18.59,2.58,1.45,9.45,20.54,19.69,21.86,30.84,21.62,30.19,1.44,24.36-25.2,32.03-25.88l.49-7.21c-18.28-4.16-42.88-1.84-64.95,1.62-.21.03-1.05.05-1.05.05m9.18,4.94c2.23-7.29,46.64-10.88,46.98,0,1.71,15.8-5.72,23.98-21.74,24.52-15.74.53-23.73-6.92-25.24-24.52Z"/>
  <g>
    <path class="cls-2" d="m188.76,258.76c-2.62-3.73-5.94-5.46-9.96-5.17-22.33,1.95-22.41,28.49-40.87,28.49-19.66-1.24-15.46-20.19.46-14.24-1.96-3.14-4.58-5.02-10.56-4.88-9.5.37-12.59,4.9-12.45,11.02,0,0,0,0,0,0,0,10.01,14.69,17.36,27.55,17.63,3.71.08,5.94.1,10.18-.24,19.53-1.55,29.84-9.72,35.67-18.51"/>
    <path class="cls-2" d="m188.81,258.76c2.62-3.73,5.94-5.46,9.96-5.17,22.33,1.95,22.41,28.49,40.87,28.49,19.66-1.24,15.46-20.19-.46-14.24,1.96-3.14,4.58-5.02,10.56-4.88,9.5.37,12.59,4.9,12.45,11.02,0,0,0,0,0,0,0,10.01-14.69,17.36-27.55,17.63-3.71.08-5.94.1-10.18-.24-19.53-1.55-29.84-9.72-35.67-18.51"/>
  </g>
  <g>
    <path class="cls-2" d="m134.77,146.62l-26.48-24.88c1.59-14.39,8.5-40.41,60.25-40.41,20.18,0,60.72,8.9,80.57,10.41,14.72,1.1,25.28-.86,33.21-4.76,10.78,14.31,10.41,36.67-5.88,55.62-7.57,10.12-33.35,16.61-64.31,16.47-42.03-1.08-64.87-5.61-77.34-12.44Z"/>
    <path class="cls-2" d="m130.45,148.28l-25.27-24.51c-10.35,2.68-17.4,11.78-17.31,28.81.27,9.83,10.32,64.97,10.54,69.45h9.2c-.32-3.02-.94-6.33-.47-9.22.12-2.66,4.38-7.04,3.62-12.5-1.28-4.74-3.95-13.19-5.33-21.66-1.02-9.14,10.22-25.2,25.03-30.38Z"/>
    <path class="cls-2" d="m264.37,154.03c10.6-3.38,14.64-9.71,17.84-15.03,8.62,11.09,5.69,44.26-1.06,83.04h-12.79c2.51-10.6-3.03-22.97-2.97-26.15.59-10.81,5.88-19.26,5.94-26.86-.06-8.07-2.23-11.82-6.97-15.01Z"/>
  </g>
  <g>
    <path class="cls-2" d="m188.38,319.62c-17.76-1.87-29.05,19.9-33.43,41.68,13.66-.48,24.8-13.06,33.43-37.76"/>
    <path class="cls-2" d="m188.38,319.62c17.76-1.87,29.05,19.9,33.43,41.68-13.66-.48-24.8-13.06-33.43-37.76"/>
  </g>
  <g>
    <path class="cls-2" d="m188.38,328.44c-3.39,9.24-9.41,19.29-11.78,22.16,1.15,10.56,5.55,16.96,11.78,21.05"/>
    <path class="cls-2" d="m188.38,328.44c3.39,9.24,9.41,19.29,11.78,22.16-1.15,10.56-5.55,16.96-11.78,21.05"/>
  </g>
  <g>
    <path class="cls-2" d="m175.14,352.59c.77,4.45,2.04,8.73,4.3,12.66-3.61,11.89-8.71,21.2-15.4,27.77-2.64-8.01-4.98-18.02-4.35-29.99,6-1.46,10.83-5.36,15.46-10.44Z"/>
    <path class="cls-2" d="m201.67,352.59c-.77,4.45-2.04,8.73-4.3,12.66,3.61,11.89,8.71,21.2,15.4,27.77,2.64-8.01,4.98-18.02,4.35-29.99-6-1.46-10.83-5.36-15.46-10.44Z"/>
  </g>
  <g>
    <path class="cls-2" d="m188.38,374.3c-3.39-2.34-5.95-4.73-7.69-7.16-2.12,6.01-3.63,9.86-4.51,11.46,2.94,9.03,7.52,16.77,12.2,19.59"/>
    <path class="cls-2" d="m188.38,374.3c3.39-2.34,5.95-4.73,7.69-7.16,2.12,6.01,3.63,9.86,4.51,11.46-2.94,9.03-7.52,16.77-12.2,19.59"/>
  </g>
  <g>
    <path class="cls-2" d="m175.1,380.84c2.36,6.03,4.33,10.06,5.98,12.38-1.21,5.28-3.7,10.53-7.62,15.73-1.96-3.08-3.98-7.78-6.16-16.48,2.33-2.44,4.83-5.88,7.81-11.63Z"/>
    <path class="cls-2" d="m201.65,380.84c-2.36,6.03-4.33,10.06-5.98,12.38,1.21,5.28,3.7,10.53,7.62,15.73,1.96-3.08,3.98-7.78,6.16-16.48-2.33-2.44-4.83-5.88-7.81-11.63Z"/>
  </g>
  <g>
    <path class="cls-2" d="m188.38,400.86c-1.49-1.01-3.48-2.89-6.1-5.84-1.43,5.27-2.97,8.52-4.57,10.93,2.95,8.73,6.68,12.49,10.67,14.62"/>
    <path class="cls-2" d="m188.38,400.86c1.49-1.01,3.48-2.89,6.1-5.84,1.43,5.27,2.97,8.52,4.57,10.93-2.95,8.73-6.68,12.49-10.67,14.62"/>
  </g>
  <g>
    <path class="cls-1" d="m229.47,351.52c2.57-.26,43.02-11.38,41.54-10.05,1.03,1.59-17.38,8.1-40.85,12.37-1.52-.77-1.95-1.54-.68-2.32Z"/>
    <path class="cls-1" d="m271.94,339.14c1.56-1.89.91-5.36,3.89-9.42,3.96-4.8,9.14-8.57,14.31-12.82,0,0-5.82,7.01-6.43,8.46-1.37,3.23.94,5.79-.7,8.99-1.64,3.21-6.57,6.06-11.06,4.78Z"/>
    <path class="cls-1" d="m272.29,342.43c2.02.75,4.52,5.72,15.37,6.45,8.19.27,22.59-6.62,27.98-7.96,0,0-14.92,3.84-16.9,3.7-3.23-.23-4.4-1.5-9.66-3.5-2.11-.8-14.04-2.09-16.79,1.31Z"/>
    <path class="cls-1" d="m285.46,336.58c1.4-1.96-.65-8.24,1.98-12.44,3.55-4.98,9.32-9.67,14.12-14.16,0,0-5.22,7.27-5.71,8.75-1.1,3.28.25,8.02-1.13,11.29-1.37,3.27-4.67,7.61-9.27,6.55Z"/>
    <path class="cls-1" d="m287.34,338.4c2.17.47,4.91,4.73,15.8,3.99,8.15-.84,19.19-8.1,24.19-10.14,0,0-11.37,4.6-13.36,4.73-3.24.21-3.98-.34-9.64-1.59-2.28-.5-15.07-.69-16.99,3.02Z"/>
    <path class="cls-1" d="m296.96,330.18c1.29-2-1.1-8.21,1.31-12.48,3.28-5.08,8.79-9.95,13.35-14.57,0,0-4.83,7.43-5.24,8.91-.92,3.31.68,8-.51,11.31-1.19,3.31-4.26,7.74-8.91,6.83Z"/>
    <path class="cls-1" d="m299.9,331.88c2.22.29,5.53,4.32,16.29,2.72,8.01-1.47,18.03-9.54,22.74-11.96,0,0-10.71,5.46-12.68,5.74-3.2.46-4.01-.03-9.82-.83-2.34-.32-15.11.49-16.52,4.32Z"/>
    <path class="cls-1" d="m308.32,323.21c1.09-2.06-1.91-8.11.06-12.5,2.77-5.25,7.79-10.41,11.88-15.28,0,0-4.08,7.67-4.35,9.18-.59,3.35,1.47,7.92.61,11.29-.86,3.37-3.48,7.95-8.22,7.32Z"/>
    <path class="cls-1" d="m319.16,315.07c.88-2.12-2.29-7.17-.76-11.66,2.23-5.39,7.15-11.13,10.74-16.22,0,0-3.82,8.55-3.93,10.07-.25,3.37,1.73,5.61,1.21,9.02-.52,3.4-2.47,9.15-7.26,8.79Z"/>
    <path class="cls-1" d="m328.69,306.3c.66-2.16-2.68-6.12-1.6-10.68,1.69-5.49,6.73-11.55,9.81-16.82,0,0-4.01,9.33-3.97,10.85.09,3.37,2.8,4.8,2.63,8.22-.18,3.42-2.05,8.52-6.86,8.44Z"/>
    <path class="cls-1" d="m337.65,297.34c.49-2.18-3.41-5.07-2.69-9.66,1.26-5.55,5.6-12.39,8.26-17.79,0,0-2.81,9.94-2.65,11.45.35,3.36,3.33,3.98,3.42,7.39s-1.52,8.47-6.34,8.61Z"/>
    <path class="cls-1" d="m346.42,288.06c.21-2.21-4.06-4.53-3.95-9.15.98-5.65,4.14-13,5.9-18.54,0,0-1.5,10.08-1.14,11.57.79,3.31,3.35,2.95,3.66,6.36.27,2.97-.37,8.19-4.47,9.76Z"/>
    <path class="cls-1" d="m311.58,324.51c2.26.11,5.34,3.62,15.83,1.17,7.77-2.1,17.41-10.7,21.77-13.47,0,0-10.29,5.99-12.21,6.43-3.12.72-5.74.65-11.64.32-2.37-.13-12.87,1.63-13.74,5.55Z"/>
    <path class="cls-1" d="m321.8,316.72c2.26.03,5.09,2.79,15.42-.04,7.63-2.39,14.99-10.65,19.16-13.58,0,0-8.17,5.69-10.07,6.2-3.08.83-5.7.86-11.62.75-2.38-.04-12.27,2.73-12.89,6.67Z"/>
    <path class="cls-1" d="m332.15,308.12c2.26-.17,5.49,2.31,15.34-1.41,7.23-3.04,13.28-11.88,16.99-15.16,0,0-7.27,6.36-9.07,7.03-2.94,1.1-5.54,1.36-11.45,1.78-2.38.17-11.8,3.79-11.81,7.75Z"/>
    <path class="cls-1" d="m340.83,299.14c2.23-.35,5.78,1.75,15.09-2.62,6.8-3.51,11.64-12.45,14.89-15.89,0,0-6.38,6.68-8.09,7.47-2.78,1.29-5.33,1.76-11.17,2.65-2.34.36-11.24,4.61-10.72,8.39Z"/>
    <path class="cls-1" d="m349.27,289.39c2.17-.54,6.04,1.35,14.64-3.88,6.23-4.14,9.65-13.73,12.36-17.52,0,0-5.32,7.37-6.9,8.32-2.57,1.55-5.05,2.23-10.72,3.6-2.28.55-10.49,5.62-9.38,9.47Z"/>
    <path class="cls-1" d="m364.47,248.21c-2.03,11.33-2.41,18.14-3.33,23.54-.65,3.8-5.06,8.28-8.18,9.02-.69-2.05.67-10.53,1.91-12.65,1.42-2.68,5.69-1.81,9.6-19.9Z"/>
  </g>
  <path class="cls-1" d="m188.38,0C84.34,0,0,84.34,0,188.38c0,17.76,2.46,34.95,7.06,51.24h6.66c-4.76-16.25-7.33-33.45-7.33-51.24C6.39,87.87,87.87,6.39,188.38,6.39s181.99,81.48,181.99,181.99c0,17.79-2.57,34.99-7.33,51.24h6.66c4.6-16.29,7.06-33.48,7.06-51.24C376.75,84.34,292.41,0,188.38,0Z"/>
  <g>
    <path class="cls-1" d="m146.81,349.85c-2.57-.26-43.02-11.38-41.54-10.05-1.03,1.59,17.38,8.1,40.85,12.37,1.52-.77,1.95-1.54.68-2.32Z"/>
    <path class="cls-1" d="m104.34,337.46c-1.56-1.89-.91-5.36-3.89-9.42-3.96-4.8-9.14-8.57-14.31-12.82,0,0,5.82,7.01,6.43,8.46,1.37,3.23-.94,5.79.7,8.99,1.64,3.21,6.57,6.06,11.06,4.78Z"/>
    <path class="cls-1" d="m103.98,340.76c-2.02.75-4.52,5.72-15.37,6.45-8.19.27-22.59-6.62-27.98-7.96,0,0,14.92,3.84,16.9,3.7,3.23-.23,4.4-1.5,9.66-3.5,2.11-.8,14.04-2.09,16.79,1.31Z"/>
    <path class="cls-1" d="m90.82,334.91c-1.4-1.96.65-8.24-1.98-12.44-3.55-4.98-9.32-9.67-14.12-14.16,0,0,5.22,7.27,5.71,8.75,1.1,3.28-.25,8.02,1.13,11.29,1.37,3.27,4.67,7.61,9.27,6.55Z"/>
    <path class="cls-1" d="m88.94,336.72c-2.17.47-4.91,4.73-15.8,3.99-8.15-.84-19.19-8.1-24.19-10.14,0,0,11.37,4.6,13.36,4.73,3.24.21,3.98-.34,9.64-1.59,2.28-.5,15.07-.69,16.99,3.02Z"/>
    <path class="cls-1" d="m79.31,328.51c-1.29-2,1.1-8.21-1.31-12.48-3.28-5.08-8.79-9.95-13.35-14.57,0,0,4.83,7.43,5.24,8.91.92,3.31-.68,8,.51,11.31s4.26,7.74,8.91,6.83Z"/>
    <path class="cls-1" d="m76.37,330.21c-2.22.29-5.53,4.32-16.29,2.72-8.01-1.47-18.03-9.54-22.74-11.96,0,0,10.71,5.46,12.68,5.74,3.2.46,4.01-.03,9.82-.83,2.34-.32,15.11.49,16.52,4.32Z"/>
    <path class="cls-1" d="m67.96,321.53c-1.09-2.06,1.91-8.11-.06-12.5-2.77-5.25-7.79-10.41-11.88-15.28,0,0,4.08,7.67,4.35,9.18.59,3.35-1.47,7.92-.61,11.29.86,3.37,3.48,7.95,8.22,7.32Z"/>
    <path class="cls-1" d="m57.11,313.39c-.88-2.12,2.29-7.17.76-11.66-2.23-5.39-7.15-11.13-10.74-16.22,0,0,3.82,8.55,3.93,10.07.25,3.37-1.73,5.61-1.21,9.02.52,3.4,2.47,9.15,7.26,8.79Z"/>
    <path class="cls-1" d="m47.59,304.63c-.66-2.16,2.68-6.12,1.6-10.68-1.69-5.49-6.73-11.55-9.81-16.82,0,0,4.01,9.33,3.97,10.85-.09,3.37-2.8,4.8-2.63,8.22.18,3.42,2.05,8.52,6.86,8.44Z"/>
    <path class="cls-1" d="m38.62,295.67c-.49-2.18,3.41-5.07,2.69-9.66-1.26-5.55-5.6-12.39-8.26-17.79,0,0,2.81,9.94,2.65,11.45-.35,3.36-3.33,3.98-3.42,7.39s1.52,8.47,6.34,8.61Z"/>
    <path class="cls-1" d="m29.85,286.39c-.21-2.21,4.06-4.53,3.95-9.15-.98-5.65-4.14-13-5.9-18.54,0,0,1.5,10.08,1.14,11.57-.79,3.31-3.35,2.95-3.66,6.36-.27,2.97.37,8.19,4.47,9.76Z"/>
    <path class="cls-1" d="m64.69,322.84c-2.26.11-5.34,3.62-15.83,1.17-7.77-2.1-17.41-10.7-21.77-13.47,0,0,10.29,5.99,12.21,6.43,3.12.72,5.74.65,11.64.32,2.37-.13,12.87,1.63,13.74,5.55Z"/>
    <path class="cls-1" d="m54.48,315.04c-2.26.03-5.09,2.79-15.42-.04-7.63-2.39-14.99-10.65-19.16-13.58,0,0,8.17,5.69,10.07,6.2,3.08.83,5.7.86,11.62.75,2.38-.04,12.27,2.73,12.89,6.67Z"/>
    <path class="cls-1" d="m44.12,306.45c-2.26-.17-5.49,2.31-15.34-1.41-7.23-3.04-13.28-11.88-16.99-15.16,0,0,7.27,6.36,9.07,7.03,2.94,1.1,5.54,1.36,11.45,1.78,2.38.17,11.8,3.79,11.81,7.75Z"/>
    <path class="cls-1" d="m35.45,297.47c-2.23-.35-5.78,1.75-15.09-2.62-6.8-3.51-11.64-12.45-14.89-15.89,0,0,6.38,6.68,8.09,7.47,2.78,1.29,5.33,1.76,11.17,2.65,2.34.36,11.24,4.61,10.72,8.39Z"/>
    <path class="cls-1" d="m27,287.71c-2.17-.54-6.04,1.35-14.64-3.88-6.23-4.14-9.65-13.73-12.36-17.52,0,0,5.32,7.37,6.9,8.32,2.57,1.55,5.05,2.23,10.72,3.6,2.28.55,10.49,5.62,9.38,9.47Z"/>
    <path class="cls-1" d="m11.81,246.53c2.03,11.33,2.41,18.14,3.33,23.54.65,3.8,5.06,8.28,8.18,9.02.69-2.05-.67-10.53-1.91-12.65-1.42-2.68-5.69-1.81-9.6-19.9Z"/>
  </g>
</svg>