<svg xmlns="http://www.w3.org/2000/svg" width="60.109" height="60.11" viewBox="0 0 60.109 60.11">
  <path id="Icon_corebrands-linkedin" data-name="Icon corebrands-linkedin" d="M51.2,51.226h-8.89V37.275c0-3.327-.069-7.6-4.649-7.6-4.636,0-5.342,3.608-5.342,7.356v14.2h-8.9V22.539h8.55v3.913h.115a9.369,9.369,0,0,1,8.436-4.636c9.018,0,10.692,5.938,10.692,13.658v15.75ZM13.365,18.619a5.171,5.171,0,1,1,5.175-5.167,5.166,5.166,0,0,1-5.175,5.167Zm4.459,32.607H8.9V22.541h8.92ZM55.668,0H4.433A4.382,4.382,0,0,0,0,4.333V55.777A4.382,4.382,0,0,0,4.433,60.11H55.659a4.4,4.4,0,0,0,4.45-4.333V4.333A4.4,4.4,0,0,0,55.659,0Z" fill="#00bcd4"/>
</svg>
