<svg id="frontend-mentor-seeklogo" xmlns="http://www.w3.org/2000/svg" width="60.887" height="60.11" viewBox="0 0 60.887 60.11">
  <path id="Tracé_12" data-name="Tracé 12" d="M254.2,123v42.759" transform="translate(-222.417 -120.347)" fill="#fff"/>
  <path id="Tracé_13" data-name="Tracé 13" d="M244.2,115.993v42.76c0,3.535,5.494,3.541,5.494,0v-42.76C249.694,112.458,244.2,112.453,244.2,115.993Zm30.913,12.3-16.481,7.691a.691.691,0,0,0,0,1.187q7.964,3.984,15.931,7.966c.788.393,1.486-.791.692-1.187q-7.964-3.984-15.931-7.966v1.187l16.481-7.691C276.607,129.109,275.909,127.926,275.113,128.3Z" transform="translate(-215.273 -113.34)" fill="#67bece"/>
  <path id="Tracé_14" data-name="Tracé 14" d="M138.089,218.6a38.19,38.19,0,0,0,29.753,29.4,39.42,39.42,0,0,0,7.554.775,1.374,1.374,0,0,0,0-2.747,35.261,35.261,0,0,1-34.659-28.16C140.371,216.147,137.724,216.877,138.089,218.6Z" transform="translate(-138.054 -188.671)" fill="#3f54a3"/>
</svg>
