<svg xmlns="http://www.w3.org/2000/svg" width="60.11" height="60.11" viewBox="0 0 60.11 60.11">
  <path id="Icon_akar-instagram-fill" data-name="Icon akar-instagram-fill" d="M19.164,1.68c3.2-.148,4.227-.18,12.391-.18s9.186.036,12.388.18a22.119,22.119,0,0,1,7.3,1.4,15.385,15.385,0,0,1,8.787,8.79,22.1,22.1,0,0,1,1.4,7.3c.148,3.21.18,4.232.18,12.394s-.036,9.186-.18,12.391a22.034,22.034,0,0,1-1.4,7.3,15.344,15.344,0,0,1-8.787,8.79,22.1,22.1,0,0,1-7.3,1.4c-3.208.148-4.23.18-12.394.18s-9.186-.036-12.391-.18a22.034,22.034,0,0,1-7.3-1.4,14.746,14.746,0,0,1-5.325-3.465,14.733,14.733,0,0,1-3.467-5.323,22.183,22.183,0,0,1-1.4-7.3c-.148-3.21-.18-4.232-.18-12.394s.036-9.186.18-12.388a22.119,22.119,0,0,1,1.4-7.3,14.743,14.743,0,0,1,3.47-5.323,14.733,14.733,0,0,1,5.32-3.467,22.183,22.183,0,0,1,7.3-1.4ZM43.7,7.09c-3.169-.145-4.12-.175-12.145-.175s-8.976.03-12.145.175a16.612,16.612,0,0,0-5.582,1.036,9.333,9.333,0,0,0-3.456,2.246,9.323,9.323,0,0,0-2.246,3.456A16.612,16.612,0,0,0,7.09,19.41c-.145,3.169-.175,4.12-.175,12.145s.03,8.976.175,12.145a16.612,16.612,0,0,0,1.036,5.582,9.33,9.33,0,0,0,2.246,3.456,9.33,9.33,0,0,0,3.456,2.246A16.612,16.612,0,0,0,19.41,56.02c3.169.145,4.118.175,12.145.175s8.976-.03,12.145-.175a16.612,16.612,0,0,0,5.582-1.036,9.926,9.926,0,0,0,5.7-5.7A16.612,16.612,0,0,0,56.02,43.7c.145-3.169.175-4.12.175-12.145s-.03-8.976-.175-12.145a16.612,16.612,0,0,0-1.036-5.582,9.333,9.333,0,0,0-2.246-3.456,9.325,9.325,0,0,0-3.456-2.246A16.612,16.612,0,0,0,43.7,7.09ZM27.716,40.82a10.028,10.028,0,1,0-6.187-9.264,10.025,10.025,0,0,0,6.187,9.264ZM20.632,20.632a15.448,15.448,0,1,1,0,21.847,15.448,15.448,0,0,1,0-21.847Zm29.8-2.224a3.653,3.653,0,1,0-5.09-.074A3.653,3.653,0,0,0,50.43,18.407Z" transform="translate(-1.5 -1.5)" fill="#00bcd4"/>
</svg>
