<?xml version="1.0" encoding="UTF-8"?>
<svg id="Calque_2" data-name="Calque 2" xmlns="http://www.w3.org/2000/svg" xmlns:xlink="http://www.w3.org/1999/xlink" viewBox="0 0 557.81 395.84">
  <defs>
    <style>
      .cls-1 {
        fill: url(#Dégradé_sans_nom_15);
      }

      .cls-2 {
        fill: url(#Dégradé_sans_nom_15-2);
      }
    </style>
    <linearGradient id="Dégradé_sans_nom_15" data-name="Dégradé sans nom 15" x1="0" y1="300.16" x2="513.42" y2="300.16" gradientUnits="userSpaceOnUse">
      <stop offset="0" stop-color="#ff432b"/>
      <stop offset="1" stop-color="gold"/>
    </linearGradient>
    <linearGradient id="Dégradé_sans_nom_15-2" data-name="Dégradé sans nom 15" x1="-1516.86" y1="69.69" x2="-1003.44" y2="69.69" gradientTransform="translate(-959.05 165.36) rotate(-180)" xlink:href="#Dégradé_sans_nom_15"/>
  </defs>
  <g id="Calque_1-2" data-name="Calque 1">
    <g>
      <path class="cls-1" d="m513.42,204.49l-159.64,174.08c-10.68,11.51-26.98,17.27-48.93,17.27h-28.19v-120.9l-110.94,104.17c-11.88,11.15-29.39,16.73-52.54,16.73h-32.02l23.68-157.08H0l34.72-34.27h99.66c12.18,0,22.62,1.68,31.34,5.03,11.73,4.62,17.59,11.83,17.59,21.62,0,1.45-.15,2.95-.45,4.49l-16.23,92.21,107.55-102.95c7.67-7.34,14.51-12.33,20.52-14.96,8.42-3.63,19.92-5.44,34.5-5.44h22.1v120.63l108.23-120.63h53.89Z"/>
      <path class="cls-2" d="m44.39,191.35L204.03,17.27C214.7,5.76,231.01,0,252.96,0h28.19s0,120.9,0,120.9l110.94-104.17C403.96,5.58,421.47,0,444.62,0h32.02s-23.68,157.08-23.68,157.08h104.85s-34.72,34.27-34.72,34.27h-99.66c-12.18,0-22.62-1.68-31.34-5.03-11.73-4.62-17.59-11.83-17.59-21.62,0-1.45.15-2.95.45-4.49l16.23-92.21-107.55,102.95c-7.67,7.34-14.51,12.33-20.52,14.96-8.42,3.63-19.92,5.44-34.5,5.44h-22.1s0-120.63,0-120.63l-108.23,120.63h-53.89Z"/>
    </g>
  </g>
</svg>