<svg xmlns="http://www.w3.org/2000/svg" width="340.521" height="153.424" viewBox="0 0 340.521 153.424">
  <g id="Groupe_1113" data-name="Groupe 1113" transform="translate(0 -51)">
    <g id="Javascript-logo" transform="translate(278.135 52)">
      <path id="path118" d="M1.334,109.332l.01.778c.005.428,1.245,14.6,2.755,31.483L6.844,172.3l12.338,3.454c6.786,1.9,12.478,3.464,12.65,3.476s5.939-1.536,12.817-3.441c11.027-3.053,12.516-3.513,12.6-3.891.11-.527,5.51-61.447,5.5-62.1l0-.467H1.334Z" transform="translate(-0.563 -93.32)" fill="#fff"/>
      <path id="path88" d="M18.153,175.961,5.705,172.482l-.163-.921C5.4,170.743,0,110.451,0,109.655c0-.288,3.152-.321,30.913-.321,29.3,0,30.913.019,30.91.363-.01,1.487-5.6,62.576-5.735,62.7-.174.154-24.267,6.866-25.072,6.985-.228.034-6.017-1.5-12.863-3.418Zm20.608-12.294c4.184-1.154,7.668-2.158,7.741-2.23s.563-5.034,1.088-11.024,1.007-11.289,1.071-11.774l.118-.882H30.705v7.676h9.759l-.1.467c-.053.257-.261,2.463-.461,4.9a26.232,26.232,0,0,1-.6,4.675,35.6,35.6,0,0,1-4.418,1.353l-4.179,1.114v3.91c0,2.669.071,3.91.225,3.91.124,0,3.648-.944,7.832-2.1Zm9.9-30.734c-.137-1.017-1.359-14.652-1.359-15.166,0-.312-.718-.342-8.195-.342H30.913v8.027l3.683.142c2.025.078,4.157.2,4.737.264l1.054.122.256,3.139c.141,1.727.308,3.49.373,3.917l.117.778H48.78Z" transform="translate(0.563 -93.321)" fill="#eaebec"/>
      <path id="path80" d="M19.182,175.754,6.843,172.3,4.1,141.594c-1.51-16.888-2.75-31.055-2.755-31.483l-.01-.778h61.41l0,.467c.006.652-5.395,61.572-5.5,62.1-.079.378-1.568.838-12.6,3.891-6.878,1.9-12.646,3.453-12.817,3.441s-5.863-1.576-12.649-3.476ZM39.9,163.813c4.265-1.186,7.815-2.254,7.889-2.374s.584-5.334,1.132-11.587,1.043-11.533,1.1-11.733c.094-.343-.631-.363-13.15-.363H23.616l.564-5.965c.31-3.281.572-5.973.581-5.984s1.954-.072,4.322-.138c3.882-.107,11.889.2,12.156.47.1.1.758,6.559.758,7.44,0,.435.059.441,4.02.441h4.02l-.095-.882c-.052-.485-.393-4.243-.757-8.351l-.662-7.469-15.5-.053c-12.334-.042-15.5,0-15.506.207,0,.143-.091,1.054-.2,2.024-.265,2.347-2.287,25.024-2.287,25.651v.491H41.411l-.118.778c-.065.428-.27,2.6-.456,4.824a38.668,38.668,0,0,1-.471,4.173c-.193.186-7.954,2.259-8.438,2.254-.225,0-2.229-.5-4.454-1.111l-4.046-1.107-.148-1.741c-.082-.958-.206-2.325-.276-3.038l-.127-1.3H15.026l.009.778c.016,1.455.96,11.255,1.1,11.392.158.158,15.235,4.4,15.7,4.413.171.006,3.8-.959,8.066-2.145Z" transform="translate(-0.563 -93.321)" fill="#f0be25"/>
      <path id="path78" d="M19.182,175.754,6.843,172.3,4.1,141.594c-1.51-16.888-2.75-31.055-2.755-31.483l-.01-.778h61.41l0,.467c.006.652-5.395,61.572-5.5,62.1-.079.378-1.568.838-12.6,3.891-6.878,1.9-12.646,3.453-12.817,3.441s-5.863-1.576-12.649-3.476Zm23.009-4.622c5.428-1.5,9.97-2.828,10.095-2.956.194-.2,4.881-51.575,4.863-53.293l-.006-.571h-25.1v2.9H24.777c-5.67,0-7.262.057-7.263.259,0,.143-.091,1.053-.2,2.023-.265,2.347-2.287,25.024-2.287,25.651v.491H32.039v6.017c0,4.677-.058,6.016-.259,6.013-.143,0-2.08-.5-4.3-1.111l-4.046-1.107-.148-1.741c-.082-.958-.206-2.325-.276-3.038l-.127-1.3H15.026l.009.778A103.485,103.485,0,0,0,16.248,161.6c.137.085,3.746,1.122,8.02,2.3l7.77,2.15v3.9a27.049,27.049,0,0,0,.142,3.9c.078,0,4.583-1.225,10.01-2.723ZM24.158,131.847c.3-3.25.583-5.946.633-5.991s1.7-.126,3.669-.181l3.579-.1v12.179H23.616Z" transform="translate(-0.563 -93.321)" fill="#e4a126"/>
      <path id="path76" d="M126.667,9.647V7.676h5.6V0h3.942V11.618h-9.543Zm11.411.415V8.506h2.593a14.536,14.536,0,0,0,2.593-.117c0-.064-1.167-1.382-2.593-2.928l-2.593-2.811V0h10.788V3.1l-2.532.058-2.532.058,2.636,2.839,2.636,2.839v2.725h-11Z" transform="translate(-106.395 -1)" fill="#0e0e0f"/>
      <g id="Typescript_logo_2020" transform="translate(3.475 96.424)">
        <rect id="Rectangle_386" data-name="Rectangle 386" width="56" height="56" rx="10" fill="#3178c6"/>
        <rect id="Rectangle_387" data-name="Rectangle 387" width="56" height="56" rx="10" fill="#3178c6"/>
        <path id="Tracé_1414" data-name="Tracé 1414" d="M139.819,256.582v5.49a11.636,11.636,0,0,0,3.167,1.029,20.861,20.861,0,0,0,3.853.343,18.007,18.007,0,0,0,3.75-.378,9.192,9.192,0,0,0,3.115-1.244,6.338,6.338,0,0,0,2.12-2.265,7.978,7.978,0,0,0,.335-6.074,6.115,6.115,0,0,0-1.287-2,9.426,9.426,0,0,0-2.017-1.57A21.6,21.6,0,0,0,150.2,248.6q-1.081-.446-1.94-.866a9.851,9.851,0,0,1-1.459-.858,3.741,3.741,0,0,1-.927-.927,1.95,1.95,0,0,1-.326-1.107,1.85,1.85,0,0,1,.292-1.021,2.52,2.52,0,0,1,.824-.781,4.406,4.406,0,0,1,1.3-.506,7.569,7.569,0,0,1,1.717-.18,10.891,10.891,0,0,1,1.45.1,11.48,11.48,0,0,1,1.536.317,10.7,10.7,0,0,1,1.5.54,8.278,8.278,0,0,1,1.347.755v-5.13a13.406,13.406,0,0,0-2.738-.712A22.309,22.309,0,0,0,149.38,238a15.837,15.837,0,0,0-3.708.42,9.432,9.432,0,0,0-3.081,1.312,6.559,6.559,0,0,0-2.1,2.273,6.665,6.665,0,0,0-.772,3.3,6.4,6.4,0,0,0,1.416,4.187,10.775,10.775,0,0,0,4.3,2.934q1.133.463,2.111.909a11.75,11.75,0,0,1,1.691.927,4.434,4.434,0,0,1,1.124,1.047,2.132,2.132,0,0,1,.412,1.287,1.969,1.969,0,0,1-.258.987,2.283,2.283,0,0,1-.781.789,4.281,4.281,0,0,1-1.3.523,7.841,7.841,0,0,1-1.828.189,10.43,10.43,0,0,1-3.536-.626,10.551,10.551,0,0,1-3.244-1.879Zm-9.23-13.528h7.043v-4.506H118v4.506h7.009v20.062h5.58Z" transform="translate(-105.135 -211.974)" fill="#fff" fill-rule="evenodd"/>
      </g>
    </g>
    <g id="Groupe_36" data-name="Groupe 36" transform="translate(147.02 51)">
      <path id="Sass_Logo" d="M49.036,24.537a11.8,11.8,0,0,0-5.162,1.2,10.877,10.877,0,0,1-1.155-2.675,7.182,7.182,0,0,1-.1-2.248,19.966,19.966,0,0,1,.676-2.425c-.01-.1-.125-.593-1.27-.6s-2.133.219-2.248.52a12.557,12.557,0,0,0-.479,1.7c-.2,1.041-2.29,4.756-3.486,6.7a7.229,7.229,0,0,1-.791-1.957,7.182,7.182,0,0,1-.1-2.248,19.965,19.965,0,0,1,.676-2.425c-.01-.1-.125-.593-1.27-.6s-2.133.219-2.248.52-.239,1.009-.479,1.7-3.018,6.89-3.747,8.492c-.375.822-.7,1.478-.926,1.925h0a.474.474,0,0,1-.042.083c-.2.385-.312.593-.312.593v.01c-.156.281-.323.541-.406.541a3.482,3.482,0,0,1,.021-1.769c.416-2.154,1.4-5.505,1.395-5.62,0-.062.187-.645-.645-.947a1.033,1.033,0,0,0-1.176.2c-.073,0-.125.177-.125.177S26.535,21.6,23.9,21.6c-1.644,0-3.913,1.8-5.037,3.424-.708.385-2.217,1.207-3.83,2.092-.614.343-1.249.687-1.842,1.009-.042-.042-.083-.094-.125-.135-3.185-3.4-9.075-5.807-8.825-10.376.094-1.665.666-6.036,11.313-11.344C24.319,1.954,31.292,3.151,32.5,5.8c1.728,3.788-3.736,10.823-12.79,11.843-3.455.385-5.266-.947-5.724-1.447-.479-.52-.552-.552-.728-.448-.291.156-.1.624,0,.9a5.344,5.344,0,0,0,3.268,2.571c1.665.541,5.714.843,10.615-1.051,5.485-2.123,9.772-8.024,8.513-12.967C34.393.185,26.067-1.47,18.189,1.329a39.683,39.683,0,0,0-13.415,7.7C.434,13.089-.252,16.617.029,18.1c1.009,5.245,8.242,8.659,11.136,11.188-.146.083-.281.156-.4.219-1.447.718-6.962,3.6-8.336,6.65-1.561,3.455.25,5.932,1.447,6.265a8.9,8.9,0,0,0,9.585-3.882,9.614,9.614,0,0,0,.853-8.856.218.218,0,0,0-.042-.062c.375-.219.76-.448,1.134-.666.739-.437,1.467-.843,2.092-1.176a13.716,13.716,0,0,0-.739,3.788,7.908,7.908,0,0,0,1.7,5.495,1.874,1.874,0,0,0,1.374.448c1.228,0,1.78-1.02,2.394-2.227.749-1.478,1.426-3.195,1.426-3.195s-.843,4.642,1.447,4.642c.833,0,1.676-1.082,2.05-1.634v.01s.021-.031.062-.1l.135-.219v-.021c.333-.583,1.082-1.9,2.2-4.1,1.436-2.831,2.82-6.369,2.82-6.369a18.088,18.088,0,0,0,.552,2.3A21.659,21.659,0,0,0,34.1,29.252c-.333.468-.541.729-.541.729l.01.01c-.271.354-.562.739-.885,1.114a33.174,33.174,0,0,0-2.675,3.351.91.91,0,0,0,.25,1.228,2.271,2.271,0,0,0,1.395.229,6.4,6.4,0,0,0,2.092-.479,7.02,7.02,0,0,0,1.8-.947,4.029,4.029,0,0,0,1.728-3.549,7.165,7.165,0,0,0-.656-2.508c.1-.146.2-.291.3-.437A47.674,47.674,0,0,0,40.044,22.6a18.087,18.087,0,0,0,.552,2.3,15.407,15.407,0,0,0,1.009,2.29,9.892,9.892,0,0,0-3.039,3.923c-.656,1.894-.146,2.747.822,2.945a2.9,2.9,0,0,0,1.519-.312,6.921,6.921,0,0,0,1.925-.989,4.327,4.327,0,0,0,2.123-3.518,6.65,6.65,0,0,0-.479-2.081A10.9,10.9,0,0,1,50,26.525c4.954.583,5.932,3.674,5.745,4.975a3.292,3.292,0,0,1-1.571,2.227c-.343.219-.458.291-.427.448.042.229.208.219.5.177a3.869,3.869,0,0,0,2.7-3.445C57.1,27.847,54.187,24.506,49.036,24.537ZM10.821,37.421c-1.644,1.79-3.934,2.466-4.923,1.894-1.062-.614-.645-3.257,1.374-5.152a26.218,26.218,0,0,1,3.861-2.883c.239-.146.593-.354,1.02-.614.073-.042.114-.062.114-.062h0l.25-.156A7.108,7.108,0,0,1,10.821,37.421Zm11.968-8.138c-.572,1.395-1.769,4.964-2.5,4.766-.624-.167-1.009-2.872-.125-5.547a12.6,12.6,0,0,1,1.946-3.57c.9-1,1.884-1.332,2.123-.926C24.537,24.537,23.143,28.409,22.789,29.283Zm9.876,4.725c-.239.125-.468.208-.572.146-.073-.042.1-.208.1-.208s1.238-1.332,1.728-1.936c.281-.354.614-.77.968-1.238v.135C34.892,32.5,33.352,33.571,32.665,34.008Zm7.618-1.738c-.177-.125-.146-.541.448-1.842a6.934,6.934,0,0,1,1.7-2.185,2.946,2.946,0,0,1,.167.957A3.148,3.148,0,0,1,40.283,32.27Z" transform="translate(2.347 110.721)" fill="#cd6799"/>
      <g id="CSS3_logo">
        <g id="g3013">
          <path id="polygon2989" d="M136.251,100.62l-5.614,62.886-25.233,7-25.164-6.986-5.608-62.9Z" transform="translate(-74.633 -83.528)" fill="#264de4"/>
          <path id="polygon2991" d="M276.39,184.633l4.8-53.739H256v59.391Z" transform="translate(-225.191 -108.659)" fill="#2965f1"/>
          <path id="polygon2993" d="M150.31,268.217l.691,7.714h17.262v-7.714Z" transform="translate(-137.455 -222.655)" fill="#ebebeb"/>
          <path id="polygon2995" d="M161.475,176.3H142.132l.7,7.714h18.641Z" transform="translate(-130.666 -146.356)" fill="#ebebeb"/>
          <path id="polygon2997" d="M173.327,352.822V344.8l-.034.009-8.591-2.32-.549-6.152h-7.743l1.081,12.112,15.8,4.386Z" transform="translate(-142.518 -279.2)" fill="#ebebeb"/>
          <path id="path2999" d="M160,0h9.343V3.907h-5.436V7.814h5.436v3.907H160Z" transform="translate(-145.499)"/>
          <path id="path3001" d="M226,0h9.343V3.4h-5.436v.679h5.436v7.814H226V8.324h5.436V7.644H226Z" transform="translate(-200.287)"/>
          <path id="path3003" d="M292,0h9.343V3.4h-5.436v.679h5.436v7.814H292V8.324h5.436V7.644H292Z" transform="translate(-255.076)"/>
          <path id="polygon3005" d="M265.342,199.632l-.9,10-8.6,2.322v8.025l15.814-4.383.116-1.3,1.813-20.308.188-2.071,1.393-15.613H255.843v7.714h10.87l-.7,7.9H255.843v7.714Z" transform="translate(-225.061 -146.356)" fill="#fff"/>
        </g>
      </g>
    </g>
    <g id="HTML5_logo" transform="translate(0 73)">
      <path id="Tracé_3" data-name="Tracé 3" d="M108.4,0h4.915V4.872h4.53V0h4.915V14.744h-4.915V9.829h-4.487v4.915H108.4m20.855-9.829h-4.338V0h13.611V4.915h-4.359v9.829h-4.915M140.687,0h5.15L149,5.192,152.161,0h5.15V14.744H152.4V7.436l-3.44,5.3-3.44-5.3v7.308h-4.829M159.746,0h4.915V9.872h6.966v4.872h-11.88" transform="translate(-101.178)"/>
      <path id="Tracé_4" data-name="Tracé 4" d="M81.651,179.746,74.6,100.6h77.522l-7.051,79.1-31.774,8.8" transform="translate(-74.6 -79.104)" fill="#e44d26"/>
      <path id="Tracé_5" data-name="Tracé 5" d="M256,205.68V131h31.688l-6.047,67.522" transform="translate(-217.239 -103.008)" fill="#f16529"/>
      <path id="Tracé_6" data-name="Tracé 6" d="M142,176.3h24.359V186H152.641l.9,9.936h12.821v9.68H144.65m.427,4.872h9.744l.684,7.756,10.855,2.906v10.128l-19.915-5.556" transform="translate(-127.598 -138.629)" fill="#ebebeb"/>
      <path id="Tracé_7" data-name="Tracé 7" d="M280.116,176.3H255.8V186h23.419m-.876,9.936H255.8v9.7h11.966l-1.132,12.607L255.8,221.151v10.086l19.872-5.513" transform="translate(-217.082 -138.629)" fill="#fff"/>
    </g>
  </g>
</svg>
