<svg xmlns="http://www.w3.org/2000/svg" width="392.91" height="140.364" viewBox="0 0 392.91 140.364">
  <g id="Groupe_27" data-name="Groupe 27" transform="translate(0 0)">
    <g id="Javascript-logo" transform="translate(293.233 0)">
      <path id="path118" d="M1.334,109.332l.016,1.254c.009.69,2.007,23.532,4.442,50.76l4.426,49.506,19.893,5.57c10.941,3.063,20.119,5.585,20.395,5.6s9.575-2.477,20.664-5.548c17.78-4.923,20.18-5.664,20.307-6.274.177-.849,8.884-99.07,8.875-100.121l-.006-.753H1.334Z" transform="translate(-0.999 -81.904)" fill="#fff"/>
      <path id="path88" d="M29.269,216.756,9.2,211.147l-.262-1.484C8.7,208.343,0,111.136,0,109.851c0-.465,5.082-.518,49.84-.518,47.245,0,49.84.03,49.836.585-.016,2.4-9.024,100.891-9.246,101.087-.28.248-39.126,11.07-40.424,11.262-.368.054-9.7-2.426-20.739-5.511ZM62.5,196.934c6.746-1.86,12.362-3.479,12.481-3.6s.908-8.116,1.754-17.774,1.623-18.2,1.728-18.983l.19-1.422H49.506v12.376H65.24l-.156.753c-.086.414-.421,3.971-.743,7.9-.342,4.168-.748,7.313-.972,7.537a57.387,57.387,0,0,1-7.124,2.181l-6.738,1.8v6.3c0,4.3.115,6.3.362,6.3.2,0,5.882-1.522,12.627-3.383Zm15.961-49.551c-.221-1.639-2.191-23.623-2.191-24.452,0-.5-1.158-.552-13.213-.552H49.84v12.942l5.937.229c3.266.126,6.7.317,7.637.426l1.7.2.413,5.062c.227,2.784.5,5.626.6,6.316l.188,1.254H78.648Z" transform="translate(0 -81.905)" fill="#eaebec"/>
      <path id="path80" d="M30.11,216.423l-19.893-5.57L5.791,161.348c-2.434-27.228-4.433-50.07-4.442-50.76l-.016-1.254h99.012l.006.753c.009,1.051-8.7,99.272-8.875,100.121-.127.609-2.527,1.351-20.307,6.274-11.089,3.071-20.388,5.567-20.664,5.548s-9.454-2.542-20.395-5.6Zm33.4-19.253c6.877-1.912,12.6-3.634,12.72-3.827s.941-8.6,1.826-18.682,1.681-18.595,1.77-18.917c.152-.553-1.018-.585-21.2-.585H37.259l.91-9.617c.5-5.289.922-9.631.936-9.647s3.15-.117,6.968-.222c6.26-.173,19.168.326,19.6.758.161.161,1.223,10.574,1.223,12,0,.7.095.711,6.482.711h6.482l-.153-1.422c-.084-.782-.633-6.84-1.22-13.464l-1.067-12.042-25-.086c-19.886-.068-25,0-25,.334,0,.231-.147,1.7-.324,3.263-.427,3.784-3.687,40.346-3.687,41.356v.791H65.95l-.19,1.254c-.1.69-.435,4.19-.735,7.777a62.347,62.347,0,0,1-.76,6.729c-.312.3-12.825,3.642-13.6,3.634-.362,0-3.594-.81-7.181-1.792l-6.523-1.785-.239-2.808c-.132-1.544-.332-3.748-.445-4.9l-.206-2.091H23.41l.014,1.254c.026,2.346,1.547,18.147,1.768,18.368.255.255,24.564,7.088,25.312,7.115.276.01,6.128-1.546,13-3.458Z" transform="translate(-0.999 -81.905)" fill="#f0be25"/>
      <path id="path78" d="M30.11,216.423l-19.893-5.57L5.791,161.348c-2.434-27.228-4.433-50.07-4.442-50.76l-.016-1.254h99.012l.006.753c.009,1.051-8.7,99.272-8.875,100.121-.127.609-2.527,1.351-20.307,6.274-11.089,3.071-20.388,5.567-20.664,5.548s-9.454-2.542-20.395-5.6Zm37.1-7.451c8.751-2.415,16.075-4.56,16.276-4.767.313-.322,7.87-83.153,7.84-85.924l-.01-.92H50.839v4.683H39.132c-9.141,0-11.708.092-11.71.418,0,.23-.147,1.7-.324,3.261-.427,3.784-3.687,40.346-3.687,41.356v.791H50.839v9.7c0,7.541-.093,9.7-.418,9.694-.23,0-3.353-.81-6.941-1.792l-6.523-1.785-.239-2.808c-.132-1.544-.332-3.748-.445-4.9l-.206-2.091H23.41l.014,1.254c.04,3.588,1.592,18.233,1.956,18.458.221.137,6.04,1.809,12.93,3.715l12.528,3.467v6.288a43.609,43.609,0,0,0,.229,6.288c.126,0,7.389-1.976,16.14-4.39ZM38.133,145.632c.481-5.24.94-9.586,1.02-9.659s2.742-.2,5.916-.291l5.77-.16v19.637H37.259Z" transform="translate(-0.999 -81.905)" fill="#e4a126"/>
      <path id="path76" d="M126.667,15.554V12.376H135.7V0h6.355V18.732H126.667Zm18.4.669V13.714h4.181a23.437,23.437,0,0,0,4.181-.189c0-.1-1.882-2.228-4.181-4.72l-4.181-4.532V0h17.394V5l-4.083.094-4.083.094,4.25,4.577,4.25,4.577v4.393H145.064Z" transform="translate(-94.89)" fill="#0e0e0f"/>
    </g>
    <g id="Groupe_36" data-name="Groupe 36">
      <path id="Sass_Logo" d="M49.138,24.589a11.821,11.821,0,0,0-5.173,1.2,10.9,10.9,0,0,1-1.158-2.68,7.2,7.2,0,0,1-.1-2.253,20.007,20.007,0,0,1,.678-2.43c-.01-.1-.125-.594-1.272-.6s-2.138.219-2.253.521a12.585,12.585,0,0,0-.48,1.7c-.2,1.043-2.294,4.766-3.494,6.716a7.244,7.244,0,0,1-.793-1.961,7.2,7.2,0,0,1-.1-2.253,20.007,20.007,0,0,1,.678-2.43c-.01-.1-.125-.594-1.272-.6s-2.138.219-2.253.521-.24,1.012-.48,1.7-3.024,6.9-3.754,8.51c-.375.824-.7,1.481-.928,1.929h0a.476.476,0,0,1-.042.083c-.2.386-.313.594-.313.594v.01c-.156.282-.323.542-.407.542a3.489,3.489,0,0,1,.021-1.773c.417-2.159,1.408-5.517,1.4-5.632,0-.063.188-.647-.647-.949a1.035,1.035,0,0,0-1.178.2c-.073,0-.125.177-.125.177s.907-3.775-1.731-3.775c-1.648,0-3.921,1.8-5.048,3.431-.709.386-2.221,1.21-3.838,2.1-.615.344-1.251.688-1.846,1.012-.042-.042-.083-.094-.125-.136C9.9,24.641,4,22.232,4.252,17.653c.094-1.669.667-6.049,11.336-11.368,8.781-4.328,15.769-3.129,16.978-.469,1.731,3.8-3.744,10.846-12.817,11.868-3.462.386-5.277-.949-5.736-1.45-.48-.521-.553-.553-.73-.448-.292.156-.1.626,0,.9a5.355,5.355,0,0,0,3.275,2.576c1.669.542,5.725.845,10.637-1.053,5.5-2.127,9.793-8.041,8.531-12.994-1.262-5.027-9.605-6.685-17.5-3.88A39.766,39.766,0,0,0,4.784,9.05C.435,13.117-.253,16.652.029,18.133c1.012,5.256,8.26,8.677,11.159,11.211-.146.083-.282.156-.4.219-1.45.72-6.977,3.608-8.354,6.664-1.564,3.462.25,5.944,1.45,6.278a8.919,8.919,0,0,0,9.605-3.89,9.635,9.635,0,0,0,.855-8.875.218.218,0,0,0-.042-.063c.375-.219.761-.448,1.137-.667.74-.438,1.47-.845,2.1-1.178a13.745,13.745,0,0,0-.74,3.8,7.925,7.925,0,0,0,1.7,5.506,1.878,1.878,0,0,0,1.377.448c1.231,0,1.783-1.022,2.4-2.232.751-1.481,1.429-3.2,1.429-3.2s-.845,4.651,1.45,4.651c.834,0,1.679-1.085,2.054-1.637v.01s.021-.031.063-.1l.136-.219V34.83c.334-.584,1.085-1.908,2.2-4.109,1.439-2.837,2.826-6.382,2.826-6.382a18.125,18.125,0,0,0,.553,2.3,21.7,21.7,0,0,0,1.189,2.67c-.334.469-.542.73-.542.73l.01.01c-.271.355-.563.74-.886,1.116a33.243,33.243,0,0,0-2.68,3.358.912.912,0,0,0,.25,1.231,2.275,2.275,0,0,0,1.4.229,6.417,6.417,0,0,0,2.1-.48,7.035,7.035,0,0,0,1.8-.949A4.037,4.037,0,0,0,37.354,31a7.18,7.18,0,0,0-.657-2.513c.1-.146.2-.292.3-.438a47.774,47.774,0,0,0,3.129-5.4,18.124,18.124,0,0,0,.553,2.3,15.439,15.439,0,0,0,1.012,2.294,9.913,9.913,0,0,0-3.045,3.932c-.657,1.9-.146,2.753.824,2.951a2.907,2.907,0,0,0,1.523-.313,6.936,6.936,0,0,0,1.929-.991A4.336,4.336,0,0,0,45.05,29.3a6.664,6.664,0,0,0-.48-2.086,10.922,10.922,0,0,1,5.538-.636c4.964.584,5.944,3.681,5.757,4.985A3.3,3.3,0,0,1,54.29,33.8c-.344.219-.459.292-.428.448.042.229.209.219.5.177a3.877,3.877,0,0,0,2.7-3.452C57.221,27.9,54.3,24.557,49.138,24.589ZM10.843,37.5C9.2,39.293,6.9,39.971,5.911,39.4c-1.064-.615-.647-3.264,1.377-5.162a26.273,26.273,0,0,1,3.869-2.889c.24-.146.594-.355,1.022-.615.073-.042.115-.063.115-.063h0l.25-.156A7.123,7.123,0,0,1,10.843,37.5Zm11.993-8.155c-.574,1.4-1.773,4.975-2.5,4.776-.626-.167-1.012-2.878-.125-5.559a12.628,12.628,0,0,1,1.95-3.577c.9-1,1.888-1.335,2.127-.928C24.589,24.589,23.191,28.468,22.837,29.344Zm9.9,4.735c-.24.125-.469.209-.574.146-.073-.042.1-.209.1-.209s1.241-1.335,1.731-1.94c.282-.355.615-.772.97-1.241v.136C34.965,32.567,33.422,33.641,32.734,34.079Zm7.634-1.742c-.177-.125-.146-.542.448-1.846a6.949,6.949,0,0,1,1.7-2.19,2.952,2.952,0,0,1,.167.959A3.155,3.155,0,0,1,40.368,32.337Z" transform="translate(170.365 93.681)" fill="#cd6799"/>
      <g id="CSS3_logo" transform="translate(168.014 3.496)">
        <g id="g3013" transform="translate(0)">
          <path id="polygon2989" d="M136.38,100.62l-5.625,63.017-25.286,7.01-25.216-7L74.633,100.62Z" transform="translate(-74.633 -83.492)" fill="#264de4"/>
          <path id="polygon2991" d="M276.432,184.745l4.807-53.851H256V190.41Z" transform="translate(-225.126 -108.613)" fill="#2965f1"/>
          <path id="polygon2993" d="M150.31,268.217l.693,7.73h17.3v-7.73Z" transform="translate(-137.428 -222.56)" fill="#ebebeb"/>
          <path id="polygon2995" d="M161.515,176.3H142.132l.7,7.73h18.681Z" transform="translate(-130.642 -146.293)" fill="#ebebeb"/>
          <path id="polygon2997" d="M173.362,352.856v-8.043l-.034.009-8.609-2.325-.55-6.165h-7.76l1.083,12.137,15.834,4.4Z" transform="translate(-142.488 -279.081)" fill="#ebebeb"/>
          <path id="path2999" d="M160,0h9.362V3.915h-5.447V7.83h5.447v3.915H160Z" transform="translate(-145.468)"/>
          <path id="path3001" d="M226,0h9.362V3.4h-5.447v.681h5.447v7.83H226V8.341h5.447V7.66H226Z" transform="translate(-200.233)"/>
          <path id="path3003" d="M292,0h9.362V3.4h-5.447v.681h5.447v7.83H292V8.341h5.447V7.66H292Z" transform="translate(-254.998)"/>
          <path id="polygon3005" d="M265.362,199.681l-.9,10.025-8.621,2.327v8.042l15.847-4.392.116-1.306,1.817-20.351.189-2.076,1.4-15.646H255.843v7.73h10.892l-.7,7.916H255.843v7.73Z" transform="translate(-224.996 -146.294)" fill="#fff"/>
        </g>
      </g>
    </g>
    <g id="HTML5_logo" transform="translate(0 0)">
      <path id="Tracé_3" data-name="Tracé 3" d="M108.4,0h6.305V6.251h5.812V0h6.305V18.916h-6.305V12.611H114.76v6.305H108.4M135.157,6.305h-5.565V0h17.463V6.305h-5.593V18.916h-6.305M149.824,0h6.607l4.057,6.662L164.546,0h6.607V18.916h-6.305V9.54l-4.414,6.8-4.414-6.8v9.376h-6.2M174.278,0h6.305V12.666h8.937v6.251H174.278" transform="translate(-99.134)"/>
      <path id="Tracé_4" data-name="Tracé 4" d="M83.647,202.144,74.6,100.6h99.461l-9.047,101.49-40.766,11.295" transform="translate(-74.6 -73.021)" fill="#e44d26"/>
      <path id="Tracé_5" data-name="Tracé 5" d="M256,226.815V131h40.656L288.9,217.631" transform="translate(-206.27 -95.087)" fill="#f16529"/>
      <path id="Tracé_6" data-name="Tracé 6" d="M142,176.3h31.253v12.446h-17.6l1.151,12.748h16.449v12.419H145.4m.548,6.251h12.5l.877,9.952,13.927,3.728v12.995L147.7,239.71" transform="translate(-123.522 -127.968)" fill="#ebebeb"/>
      <path id="Tracé_7" data-name="Tracé 7" d="M287,176.3H255.8v12.446h30.047m-1.124,12.748H255.8v12.446h15.352L269.7,230.115l-13.9,3.728v12.94l25.5-7.073" transform="translate(-206.124 -127.968)" fill="#fff"/>
    </g>
  </g>
</svg>
