<svg id="Groupe_37" data-name="Groupe 37" xmlns="http://www.w3.org/2000/svg" xmlns:xlink="http://www.w3.org/1999/xlink" width="311.09" height="88.629" viewBox="0 0 311.09 88.629">
  <defs>
    <linearGradient id="linear-gradient" x1="0.324" y1="0.248" x2="1.649" y2="1.377" gradientUnits="objectBoundingBox">
      <stop offset="0" stop-color="#5a9fd4"/>
      <stop offset="1" stop-color="#306998"/>
    </linearGradient>
    <linearGradient id="linear-gradient-2" x1="1.483" y1="1.955" x2="1.011" y2="1.297" gradientUnits="objectBoundingBox">
      <stop offset="0" stop-color="#ffd43b"/>
      <stop offset="1" stop-color="#ffe873"/>
    </linearGradient>
    <radialGradient id="radial-gradient" cx="0.5" cy="0.5" r="0.5" gradientTransform="translate(-0.127 1.408) rotate(-90) scale(1 0.852)" gradientUnits="objectBoundingBox">
      <stop offset="0" stop-color="#b8b8b8" stop-opacity="0.498"/>
      <stop offset="1" stop-color="#7f7f7f" stop-opacity="0"/>
    </radialGradient>
  </defs>
  <g id="angular-ar21" transform="translate(120.91 18.163)">
    <path id="Tracé_80" data-name="Tracé 80" d="M37.363,48.452V25.065h3.008L54.669,43.9V25.065h2.86V48.452H54.521L40.206,29.434V48.452h-2.86Zm43.458-.928A17.375,17.375,0,0,1,74.731,48.6q-12.7,0-12.7-12.183c0-7.688,4.085-11.552,12.275-11.552a21.607,21.607,0,0,1,6.535.968v2.6a17.04,17.04,0,0,0-6.2-1.151c-6.388,0-9.583,3.046-9.583,9.063,0,6.5,3.157,9.734,9.434,9.734a16.406,16.406,0,0,0,3.344-.408V37.833h3.008v9.694Zm4.829-8.1V25.051h3.008V39.425q0,6.743,6.743,6.743c4.457,0,6.743-2.248,6.743-6.743V25.051h3.008V39.425c0,6.129-3.233,9.211-9.734,9.211s-9.733-3.083-9.733-9.211Zm27.859-14.36V46.031h12.275v2.452H110.518V25.065h3.008Zm16.6,23.4h-3.157L138.578,22,150.2,48.483h-3.344l-3.008-7.355h-7.728l.818-2.452h5.906l-4.383-10.586-8.359,20.392Zm23.326,0v-23.4h9.993c4.457,0,6.686,1.857,6.686,5.608,0,3.046-2.192,5.311-6.535,6.743l8.022,11.03h-3.976L160.2,37.935V36c4.457-.705,6.743-2.414,6.743-5.162,0-2.154-1.21-3.233-3.714-3.233h-6.686V48.452H153.46Z" transform="translate(18.576 -10.283)" fill="#b52e31"/>
    <path id="Tracé_81" data-name="Tracé 81" d="M5,23.765l23.957-8.541,24.59,8.394L49.57,55.3,28.957,66.7,8.677,55.465Z" transform="translate(-5 -15.222)" fill="#e23237"/>
    <path id="Tracé_82" data-name="Tracé 82" d="M43.447,23.617l-24.59-8.394V66.7L39.472,55.3l3.976-31.683Z" transform="translate(5.1 -15.223)" fill="#b52e31"/>
    <path id="Tracé_83" data-name="Tracé 83" d="M25.176,18.71,10.242,51.9l5.572-.111,3.008-7.5H32.157l3.285,7.578,5.311.111L25.19,18.693Zm.035,10.66,5.052,10.55H20.788l4.422-10.546Z" transform="translate(-1.179 -12.694)" fill="#fff"/>
  </g>
  <g id="Python-logo-notext">
    <path id="path1948" d="M36.144,0a50.385,50.385,0,0,0-8.432.72C20.244,2.04,18.888,4.8,18.888,9.893v6.725H36.534V18.86H12.266c-5.128,0-9.619,3.082-11.024,8.946a32.984,32.984,0,0,0,0,17.934c1.254,5.224,4.25,8.946,9.378,8.946h6.067V46.625A11.214,11.214,0,0,1,27.711,35.663H45.337A8.89,8.89,0,0,0,54.16,26.7V9.893c0-4.782-4.034-8.375-8.823-9.173A55.034,55.034,0,0,0,36.144,0ZM26.6,5.41A3.363,3.363,0,1,1,23.29,8.783,3.348,3.348,0,0,1,26.6,5.41Z" transform="translate(0 0)" fill="url(#linear-gradient)"/>
    <path id="path1950" d="M66.172,28.657v7.836A11.318,11.318,0,0,1,55.149,47.681H37.523A9,9,0,0,0,28.7,56.648v16.8c0,4.782,4.158,7.6,8.823,8.967a29.523,29.523,0,0,0,17.626,0c4.442-1.286,8.823-3.875,8.823-8.967V66.726H46.346V64.484H72.795c5.128,0,7.04-3.577,8.823-8.946,1.842-5.528,1.764-10.843,0-17.934-1.267-5.105-3.688-8.946-8.823-8.946ZM56.259,71.209a3.363,3.363,0,1,1-3.311,3.352A3.33,3.33,0,0,1,56.259,71.209Z" transform="translate(-9.812 -9.797)" fill="url(#linear-gradient-2)"/>
    <ellipse id="path1894" cx="23.647" cy="4.585" rx="23.647" ry="4.585" transform="translate(13.087 79.458)" opacity="0.444" fill="url(#radial-gradient)"/>
  </g>
</svg>
