<svg xmlns="http://www.w3.org/2000/svg" width="30" height="31.823" viewBox="0 0 30 31.823">
  <path id="Icon_fa-solid-gear" data-name="Icon fa-solid-gear" d="M30.948,10.357a1.408,1.408,0,0,1-.4,1.529l-2.692,2.449a11.849,11.849,0,0,1,0,3.158l2.692,2.449a1.408,1.408,0,0,1,.4,1.529,15.409,15.409,0,0,1-.982,2.132l-.292.5a15.819,15.819,0,0,1-1.374,1.94,1.408,1.408,0,0,1-1.523.423l-3.463-1.1a11.962,11.962,0,0,1-2.735,1.579L19.8,30.5a1.4,1.4,0,0,1-1.131,1.107,16.15,16.15,0,0,1-5.284,0A1.4,1.4,0,0,1,12.254,30.5l-.777-3.55A11.962,11.962,0,0,1,8.742,25.37L5.285,26.477a1.419,1.419,0,0,1-1.523-.423,15.819,15.819,0,0,1-1.374-1.94l-.292-.5a15.409,15.409,0,0,1-.982-2.132,1.408,1.408,0,0,1,.4-1.529L4.2,17.5A12.2,12.2,0,0,1,4.1,15.915,12.029,12.029,0,0,1,4.2,14.336L1.512,11.886a1.408,1.408,0,0,1-.4-1.529A15.409,15.409,0,0,1,2.1,8.225l.292-.5a15.819,15.819,0,0,1,1.374-1.94,1.408,1.408,0,0,1,1.523-.423l3.463,1.1A11.962,11.962,0,0,1,11.483,4.88l.777-3.55A1.4,1.4,0,0,1,13.392.224,15.411,15.411,0,0,1,16.034,0a16.064,16.064,0,0,1,2.642.218,1.4,1.4,0,0,1,1.131,1.107l.777,3.55A11.962,11.962,0,0,1,23.32,6.453l3.463-1.1a1.419,1.419,0,0,1,1.523.423,15.819,15.819,0,0,1,1.374,1.94l.292.5a15.41,15.41,0,0,1,.982,2.132ZM16.034,20.888a4.973,4.973,0,1,0-4.973-4.973,4.973,4.973,0,0,0,4.973,4.973Z" transform="translate(-1.031)" fill="#f5f5f5"/>
</svg>
