<svg xmlns="http://www.w3.org/2000/svg" width="83.599" height="76.631" viewBox="0 0 83.599 76.631">
  <path id="biking_6627606" d="M17.416,77.631A17.416,17.416,0,1,1,34.833,60.215,17.416,17.416,0,0,1,17.416,77.631Zm0-27.866a10.45,10.45,0,1,0,10.45,10.45A10.45,10.45,0,0,0,17.416,49.765ZM66.182,77.631A17.416,17.416,0,1,1,83.6,60.215,17.416,17.416,0,0,1,66.182,77.631Zm0-27.866a10.45,10.45,0,1,0,10.45,10.45A10.45,10.45,0,0,0,66.182,49.765Zm-20.9,10.45V46.282a3.483,3.483,0,0,0-1.216-2.64L36.1,36.8a3.434,3.434,0,0,1-1.212-2.588,3.379,3.379,0,0,1,.954-2.473L42.684,26.3a3.508,3.508,0,0,1,4.939.233l9.057,8.36a3.483,3.483,0,0,0,2.365.927H69.666a3.483,3.483,0,1,0,0-6.966H60.4l-7.931-7.325a10.356,10.356,0,0,0-14.3-.529l-6.841,5.434a10.45,10.45,0,0,0,.237,15.643l6.751,5.81V60.215a3.483,3.483,0,0,0,6.967,0ZM57.474,1a8.708,8.708,0,1,0,8.708,8.708A8.708,8.708,0,0,0,57.474,1Z" transform="translate(0 -1)" fill="#0a082e"/>
</svg>
