<svg xmlns="http://www.w3.org/2000/svg" width="200" height="80" viewBox="0 0 200 80">
  <g id="Groupe_25" data-name="Groupe 25" transform="translate(0.025 0)">
    <g id="Aftereffects" transform="translate(118 0)">
      <rect id="Fond_logo_aeRectangle_10" data-name="Fond logo aeRectangle 10" width="82" height="80" rx="5" transform="translate(-0.025 0)" fill="#00005b"/>
      <path id="Aftereffects-2" data-name="Aftereffects" d="M18.3,39.478,15.618,49.593c-.058.281-.169.383-.5.383H10.144c-.339,0-.393-.119-.339-.508l9.621-33.65a10.028,10.028,0,0,0,.332-2.778c0-.224.112-.339.281-.339h7.1c.224,0,.339.061.393.339L38.316,49.526c.054.278,0,.44-.281.44h-5.59c-.278,0-.44-.1-.5-.325l-2.795-10.17H18.312Zm9.506-5.5c-.949-3.747-3.252-11.959-4.086-15.922h-.054c-.725,3.964-2.561,10.665-3.964,15.922Zm18.158,3.469c.058,4.584,2.236,7.656,7.378,7.656a13.082,13.082,0,0,0,5.522-1.05c.227-.108.4-.051.4.227v4.248a.737.737,0,0,1-.339.678,15.086,15.086,0,0,1-6.809,1.287c-8.944,0-12.3-6.6-12.3-13.974,0-8,4.14-14.533,11.406-14.533,7.378,0,9.95,6.21,9.95,11.237a16.511,16.511,0,0,1-.288,3.581.471.471,0,0,1-.447.43,47.792,47.792,0,0,1-5.647.224H45.966Zm6.877-4.658a18.737,18.737,0,0,0,2.514-.054c0-.23.058-.423.058-.589,0-1.846-.9-5.231-4.424-5.231-3.242,0-4.641,2.852-4.973,5.868h6.819Z" transform="translate(4.159 8.116)" fill="#99f"/>
    </g>
    <g id="Premiere_pro" data-name="Premiere pro" transform="translate(0 0)">
      <rect id="Fond_logo_pr" data-name="Fond logo pr" width="80" height="80" rx="5" transform="translate(-0.025 0)" fill="#00005b"/>
      <path id="Premierepro" d="M14.431,13.195c0-.227.059-.4.344-.4,2.214-.114,5.45-.172,8.858-.172,9.543,0,13.691,5.229,13.691,11.932,0,8.744-6.331,12.5-14.111,12.5-1.308,0-1.763-.059-2.671-.059v13.23c0,.286-.114.4-.4.4H14.83c-.286,0-.4-.114-.4-.4Zm6.111,18.29c.8.055,1.422.055,2.785.055,4.031,0,7.8-1.418,7.8-6.871,0-4.372-2.692-6.589-7.295-6.589-1.363,0-2.668.055-3.295.114Zm22.032-3.126c0-.4,0-1.418-.169-3.35,0-.286.038-.344.265-.454A35.872,35.872,0,0,1,55.259,22.17c.282,0,.4.055.4.341v5c0,.282-.09.341-.375.341a19.708,19.708,0,0,0-6.506.682V50.223c0,.286-.117.4-.4.4h-5.4c-.282,0-.4-.114-.4-.4Z" transform="translate(3.874 8.193)" fill="#99f"/>
    </g>
  </g>
</svg>
