<svg id="Layer_2" xmlns="http://www.w3.org/2000/svg" width="295.901" height="67.138" viewBox="0 0 295.901 67.138">
  <g id="Groupe_22" data-name="Groupe 22">
    <path id="Tracé_83" data-name="Tracé 83" d="M283.5,48.227H271.857v1.236c3.643,0,4.229.781,4.229,5.4v8.33c0,4.62-.585,5.466-4.229,5.466-2.8-.39-4.685-1.887-7.288-4.75l-2.993-3.253c4.034-.717,6.181-3.254,6.181-6.117,0-3.578-3.058-6.311-8.784-6.311H247.52v1.236c3.643,0,4.229.781,4.229,5.4v8.33c0,4.62-.586,5.466-4.229,5.466V69.9h12.949V68.659c-3.643,0-4.229-.846-4.229-5.466V60.852h1.106l7.223,9.044H283.5c9.3,0,13.34-4.945,13.34-10.867S292.81,48.227,283.5,48.227ZM256.24,58.833V50.179h2.668c2.928,0,4.23,2.017,4.23,4.36a3.972,3.972,0,0,1-4.23,4.294H256.24Zm27.46,9.046h-.456c-2.342,0-2.668-.585-2.668-3.579V50.179H283.7c6.767,0,8,4.945,8,8.784C291.7,62.933,290.467,67.879,283.7,67.879Z" transform="translate(-111.888 -21.8)" fill="#00749a"/>
    <path id="Tracé_84" data-name="Tracé 84" d="M157.007,55.873,161.5,42.6c1.3-3.839.716-4.945-3.448-4.945v-1.3h12.233v1.3c-4.1,0-5.075.976-6.7,5.726l-7.419,22.254h-.846l-6.638-20.368-6.767,20.368h-.846l-7.223-22.254c-1.562-4.75-2.6-5.726-6.377-5.726v-1.3h14.446v1.3c-3.84,0-4.881.911-3.514,4.945l4.36,13.276,6.572-19.522h1.237Z" transform="translate(-57.619 -16.432)" fill="#00749a"/>
    <path id="Tracé_85" data-name="Tracé 85" d="M211.016,70.042c-7.158,0-13.014-5.27-13.014-11.713,0-6.377,5.857-11.648,13.014-11.648s13.014,5.271,13.014,11.648C224.03,64.772,218.174,70.042,211.016,70.042Zm0-21.343c-5.986,0-8.069,5.4-8.069,9.63,0,4.3,2.083,9.631,8.069,9.631,6.052,0,8.135-5.336,8.135-9.631C219.151,54.1,217.068,48.7,211.016,48.7Z" transform="translate(-89.504 -21.101)" fill="#00749a"/>
    <path id="Tracé_86" data-name="Tracé 86" d="M354.571,63.225v1.3h-14.9v-1.3c4.36,0,5.141-1.106,5.141-7.614V45.2c0-6.508-.781-7.549-5.141-7.549v-1.3H353.14c6.7,0,10.412,3.449,10.412,8.07,0,4.49-3.71,8-10.412,8H349.43v3.188C349.43,62.12,350.211,63.225,354.571,63.225ZM353.14,38.693H349.43V50.016h3.709c3.645,0,5.336-2.538,5.336-5.6C358.476,41.3,356.784,38.693,353.14,38.693Z" transform="translate(-153.543 -16.431)" fill="#464342"/>
    <path id="Tracé_87" data-name="Tracé 87" d="M429.19,63.779l-.325,1.171c-.585,2.147-1.3,2.928-5.922,2.928h-.911c-3.383,0-3.969-.781-3.969-5.4V59.485c5.076,0,5.466.455,5.466,3.839h1.236v-9.7h-1.236c0,3.384-.391,3.839-5.466,3.839V50.179h3.578c4.621,0,5.336.781,5.922,2.928l.326,1.236h1.041l-.455-6.116H409.343v1.236c3.643,0,4.23.781,4.23,5.4v8.33c0,4.226-.5,5.291-3.371,5.443-2.731-.417-4.605-1.906-7.17-4.727l-2.994-3.253c4.035-.717,6.182-3.254,6.182-6.117,0-3.578-3.058-6.311-8.784-6.311H385.984v1.236c3.643,0,4.229.781,4.229,5.4v8.33c0,4.62-.585,5.466-4.229,5.466V69.9h12.949V68.66c-3.643,0-4.23-.846-4.23-5.466V60.852h1.106l7.223,9.044h26.744l.391-6.116h-.977ZM394.7,58.833V50.179h2.668c2.928,0,4.23,2.017,4.23,4.36a3.972,3.972,0,0,1-4.23,4.294H394.7Z" transform="translate(-174.479 -21.8)" fill="#464342"/>
    <path id="Tracé_88" data-name="Tracé 88" d="M482.229,70.043a9.62,9.62,0,0,1-5.857-2.213,4.675,4.675,0,0,0-1.041,2.213H474.1V61.064h1.3c.521,4.294,3.513,6.832,7.353,6.832,2.082,0,3.774-1.171,3.774-3.123,0-1.692-1.5-2.994-4.165-4.23l-3.709-1.757c-2.6-1.237-4.555-3.385-4.555-6.247,0-3.123,2.928-5.791,6.963-5.791a8.149,8.149,0,0,1,5.076,1.692,3.678,3.678,0,0,0,.846-1.758h1.236v7.679h-1.367c-.456-3.059-2.147-5.6-5.6-5.6-1.822,0-3.515,1.041-3.515,2.669,0,1.692,1.367,2.6,4.491,4.034l3.578,1.757c3.124,1.5,4.36,3.905,4.36,5.857C490.167,67.18,486.589,70.043,482.229,70.043Z" transform="translate(-214.308 -21.102)" fill="#464342"/>
    <path id="Tracé_89" data-name="Tracé 89" d="M518.8,70.043a9.617,9.617,0,0,1-5.857-2.213,4.676,4.676,0,0,0-1.041,2.213H510.67V61.064h1.3c.521,4.294,3.514,6.832,7.353,6.832,2.082,0,3.774-1.171,3.774-3.123,0-1.692-1.5-2.994-4.165-4.23l-3.709-1.757c-2.6-1.237-4.555-3.385-4.555-6.247,0-3.123,2.928-5.791,6.963-5.791a8.149,8.149,0,0,1,5.076,1.692,3.668,3.668,0,0,0,.845-1.758h1.237v7.679h-1.366c-.456-3.059-2.147-5.6-5.6-5.6-1.822,0-3.515,1.041-3.515,2.669,0,1.692,1.367,2.6,4.491,4.034l3.578,1.757c3.124,1.5,4.36,3.905,4.36,5.857C526.741,67.18,523.163,70.043,518.8,70.043Z" transform="translate(-230.841 -21.102)" fill="#464342"/>
    <g id="Groupe_21" data-name="Groupe 21">
      <path id="Tracé_90" data-name="Tracé 90" d="M8.708,51.592a28.8,28.8,0,0,0,16.23,25.918L11.2,39.872A28.688,28.688,0,0,0,8.708,51.592Z" transform="translate(-3.936 -18.024)" fill="#464342"/>
      <path id="Tracé_91" data-name="Tracé 91" d="M60.854,36.051a15.162,15.162,0,0,0-2.375-7.942c-1.46-2.372-2.828-4.381-2.828-6.753a4.987,4.987,0,0,1,4.836-5.111c.128,0,.249.016.373.023a28.792,28.792,0,0,0-43.508,5.42c.676.02,1.312.035,1.853.035,3.012,0,7.675-.365,7.675-.365a1.19,1.19,0,0,1,.185,2.372s-1.56.184-3.3.275L34.256,55.2l6.3-18.9L36.071,24c-1.551-.091-3.02-.275-3.02-.275a1.19,1.19,0,0,1,.182-2.372s4.756.365,7.585.365c3.012,0,7.675-.365,7.675-.365a1.19,1.19,0,0,1,.185,2.372s-1.563.184-3.3.275L55.789,54.959l2.872-9.6C59.906,41.378,60.854,38.517,60.854,36.051Z" transform="translate(-7.844 -3.936)" fill="#464342"/>
      <path id="Tracé_92" data-name="Tracé 92" d="M55.056,65.857l-8.64,25.107a28.811,28.811,0,0,0,17.7-.459,2.529,2.529,0,0,1-.2-.4Z" transform="translate(-20.982 -29.77)" fill="#464342"/>
      <path id="Tracé_93" data-name="Tracé 93" d="M98.473,36.046a22.1,22.1,0,0,1,.194,2.961,27.165,27.165,0,0,1-2.19,10.315l-8.8,25.433A28.8,28.8,0,0,0,98.473,36.046Z" transform="translate(-39.635 -16.294)" fill="#464342"/>
      <path id="Tracé_94" data-name="Tracé 94" d="M33.569,0A33.569,33.569,0,1,0,67.14,33.568,33.607,33.607,0,0,0,33.569,0Zm0,65.6A32.03,32.03,0,1,1,65.6,33.568,32.067,32.067,0,0,1,33.569,65.6Z" fill="#464342"/>
    </g>
  </g>
</svg>
